<mxfile host="app.diagrams.net" modified="2022-06-08T10:55:06.328Z" agent="5.0 (Windows NT 10.0; Win64; x64) AppleWebKit/537.36 (KHTML, like Gecko) Chrome/102.0.5005.63 Safari/537.36 Edg/102.0.1245.33" etag="XJTAaFApqQa8GyP1iKJR" version="17.4.0" type="github" pages="4">
  <diagram id="tu2UdsqhRvWZ9z0wMG1B" name="Page-1">
    <mxGraphModel dx="2437" dy="679" grid="1" gridSize="10" guides="1" tooltips="1" connect="1" arrows="1" fold="1" page="1" pageScale="1" pageWidth="1169" pageHeight="827" math="0" shadow="0">
      <root>
        <mxCell id="0" />
        <mxCell id="1" parent="0" />
        <mxCell id="5ITBzttvTcYRLU9-dRo0-1" value="&lt;span style=&quot;font-size: 18px&quot;&gt;用户表&lt;/span&gt;" style="rounded=0;whiteSpace=wrap;html=1;fillColor=#1ba1e2;strokeColor=#006EAF;strokeWidth=2;fontColor=#ffffff;" parent="1" vertex="1">
          <mxGeometry x="-98.5" y="220" width="120" height="60" as="geometry" />
        </mxCell>
        <mxCell id="5ITBzttvTcYRLU9-dRo0-3" value="&lt;font style=&quot;font-size: 12px&quot;&gt;用户名&lt;/font&gt;" style="ellipse;whiteSpace=wrap;html=1;fontSize=18;strokeColor=default;strokeWidth=2;" parent="1" vertex="1">
          <mxGeometry x="-208.5" y="167" width="60" height="46" as="geometry" />
        </mxCell>
        <mxCell id="5ITBzttvTcYRLU9-dRo0-4" value="&lt;font style=&quot;font-size: 12px&quot;&gt;密码&lt;/font&gt;" style="ellipse;whiteSpace=wrap;html=1;fontSize=18;strokeColor=default;strokeWidth=2;" parent="1" vertex="1">
          <mxGeometry x="-128.5" y="160" width="60" height="46" as="geometry" />
        </mxCell>
        <mxCell id="5ITBzttvTcYRLU9-dRo0-5" value="&lt;font style=&quot;font-size: 12px&quot;&gt;邮箱&lt;/font&gt;&lt;span style=&quot;color: rgba(0 , 0 , 0 , 0) ; font-family: monospace ; font-size: 0px&quot;&gt;%3CmxGraphModel%3E%3Croot%3E%3CmxCell%20id%3D%220%22%2F%3E%3CmxCell%20id%3D%221%22%20parent%3D%220%22%2F%3E%3CmxCell%20id%3D%222%22%20value%3D%22%26lt%3Bfont%20style%3D%26quot%3Bfont-size%3A%2012px%26quot%3B%26gt%3B%E7%94%A8%E6%88%B7%E5%90%8D%26lt%3B%2Ffont%26gt%3B%22%20style%3D%22ellipse%3BwhiteSpace%3Dwrap%3Bhtml%3D1%3BfontSize%3D18%3BstrokeColor%3Ddefault%3BstrokeWidth%3D2%3B%22%20vertex%3D%221%22%20parent%3D%221%22%3E%3CmxGeometry%20x%3D%22140%22%20y%3D%22360%22%20width%3D%2260%22%20height%3D%2246%22%20as%3D%22geometry%22%2F%3E%3C%2FmxCell%3E%3C%2Froot%3E%3C%2FmxGraphModel%3E&lt;/span&gt;" style="ellipse;whiteSpace=wrap;html=1;fontSize=18;strokeColor=default;strokeWidth=2;" parent="1" vertex="1">
          <mxGeometry x="-48.5" y="160" width="60" height="46" as="geometry" />
        </mxCell>
        <mxCell id="5ITBzttvTcYRLU9-dRo0-6" value="&lt;span style=&quot;font-size: 12px&quot;&gt;头像&lt;/span&gt;&lt;span style=&quot;color: rgba(0 , 0 , 0 , 0) ; font-family: monospace ; font-size: 0px&quot;&gt;%3CmxGraphModel%3E%3Croot%3E%3CmxCell%20id%3D%220%22%2F%3E%3CmxCell%20id%3D%221%22%20parent%3D%220%22%2F%3E%3CmxCell%20id%3D%222%22%20value%3D%22%26lt%3Bfont%20style%3D%26quot%3Bfont-size%3A%2012px%26quot%3B%26gt%3B%E9%82%AE%E7%AE%B1%26lt%3B%2Ffont%26gt%3B%26lt%3Bspan%20style%3D%26quot%3Bcolor%3A%20rgba(0%20%2C%200%20%2C%200%20%2C%200)%20%3B%20font-family%3A%20monospace%20%3B%20font-size%3A%200px%26quot%3B%26gt%3B%253CmxGraphModel%253E%253Croot%253E%253CmxCell%2520id%253D%25220%2522%252F%253E%253CmxCell%2520id%253D%25221%2522%2520parent%253D%25220%2522%252F%253E%253CmxCell%2520id%253D%25222%2522%2520value%253D%2522%2526lt%253Bfont%2520style%253D%2526quot%253Bfont-size%253A%252012px%2526quot%253B%2526gt%253B%25E7%2594%25A8%25E6%2588%25B7%25E5%2590%258D%2526lt%253B%252Ffont%2526gt%253B%2522%2520style%253D%2522ellipse%253BwhiteSpace%253Dwrap%253Bhtml%253D1%253BfontSize%253D18%253BstrokeColor%253Ddefault%253BstrokeWidth%253D2%253B%2522%2520vertex%253D%25221%2522%2520parent%253D%25221%2522%253E%253CmxGeometry%2520x%253D%2522140%2522%2520y%253D%2522360%2522%2520width%253D%252260%2522%2520height%253D%252246%2522%2520as%253D%2522geometry%2522%252F%253E%253C%252FmxCell%253E%253C%252Froot%253E%253C%252FmxGraphModel%253E%26lt%3B%2Fspan%26gt%3B%22%20style%3D%22ellipse%3BwhiteSpace%3Dwrap%3Bhtml%3D1%3BfontSize%3D18%3BstrokeColor%3Ddefault%3BstrokeWidth%3D2%3B%22%20vertex%3D%221%22%20parent%3D%221%22%3E%3CmxGeometry%20x%3D%22310%22%20y%3D%22360%22%20width%3D%2260%22%20height%3D%2246%22%20as%3D%22geometry%22%2F%3E%3C%2FmxCell%3E%3C%2Froot%3E%3C%2FmxGraphModel%3E&lt;/span&gt;" style="ellipse;whiteSpace=wrap;html=1;fontSize=18;strokeColor=default;strokeWidth=2;" parent="1" vertex="1">
          <mxGeometry x="41.5" y="160" width="60" height="46" as="geometry" />
        </mxCell>
        <mxCell id="5ITBzttvTcYRLU9-dRo0-7" value="&lt;span style=&quot;font-size: 12px&quot;&gt;注册时间&lt;/span&gt;" style="ellipse;whiteSpace=wrap;html=1;fontSize=18;strokeColor=default;strokeWidth=2;" parent="1" vertex="1">
          <mxGeometry x="-208.5" y="310" width="60" height="46" as="geometry" />
        </mxCell>
        <mxCell id="5ITBzttvTcYRLU9-dRo0-8" value="&lt;span style=&quot;font-size: 12px&quot;&gt;上次登录时间&lt;/span&gt;" style="ellipse;whiteSpace=wrap;html=1;fontSize=18;strokeColor=default;strokeWidth=2;" parent="1" vertex="1">
          <mxGeometry x="-118.5" y="382" width="80" height="46" as="geometry" />
        </mxCell>
        <mxCell id="5ITBzttvTcYRLU9-dRo0-9" value="&lt;span style=&quot;font-size: 12px&quot;&gt;粉丝数&lt;/span&gt;&lt;span style=&quot;color: rgba(0 , 0 , 0 , 0) ; font-family: monospace ; font-size: 0px&quot;&gt;%3CmxGraphModel%3E%3Croot%3E%3CmxCell%20id%3D%220%22%2F%3E%3CmxCell%20id%3D%221%22%20parent%3D%220%22%2F%3E%3CmxCell%20id%3D%222%22%20value%3D%22%26lt%3Bfont%20style%3D%26quot%3Bfont-size%3A%2012px%26quot%3B%26gt%3B%E9%82%AE%E7%AE%B1%26lt%3B%2Ffont%26gt%3B%26lt%3Bspan%20style%3D%26quot%3Bcolor%3A%20rgba(0%20%2C%200%20%2C%200%20%2C%200)%20%3B%20font-family%3A%20monospace%20%3B%20font-size%3A%200px%26quot%3B%26gt%3B%253CmxGraphModel%253E%253Croot%253E%253CmxCell%2520id%253D%25220%2522%252F%253E%253CmxCell%2520id%253D%25221%2522%2520parent%253D%25220%2522%252F%253E%253CmxCell%2520id%253D%25222%2522%2520value%253D%2522%2526lt%253Bfont%2520style%253D%2526quot%253Bfont-size%253A%252012px%2526quot%253B%2526gt%253B%25E7%2594%25A8%25E6%2588%25B7%25E5%2590%258D%2526lt%253B%252Ffont%2526gt%253B%2522%2520style%253D%2522ellipse%253BwhiteSpace%253Dwrap%253Bhtml%253D1%253BfontSize%253D18%253BstrokeColor%253Ddefault%253BstrokeWidth%253D2%253B%2522%2520vertex%253D%25221%2522%2520parent%253D%25221%2522%253E%253CmxGeometry%2520x%253D%2522140%2522%2520y%253D%2522360%2522%2520width%253D%252260%2522%2520height%253D%252246%2522%2520as%253D%2522geometry%2522%252F%253E%253C%252FmxCell%253E%253C%252Froot%253E%253C%252FmxGraphModel%253E%26lt%3B%2Fspan%26gt%3B%22%20style%3D%22ellipse%3BwhiteSpace%3Dwrap%3Bhtml%3D1%3BfontSize%3D18%3BstrokeColor%3Ddefault%3BstrokeWidth%3D2%3B%22%20vertex%3D%221%22%20parent%3D%221%22%3E%3CmxGeometry%20x%3D%22310%22%20y%3D%22360%22%20width%3D%2260%22%20height%3D%2246%22%20as%3D%22geometry%22%2F%3E%3C%2FmxCell%3E%3C%2Froot%3E%3C%2FmxGraphModel%3E&lt;/span&gt;" style="ellipse;whiteSpace=wrap;html=1;fontSize=18;strokeColor=default;strokeWidth=2;" parent="1" vertex="1">
          <mxGeometry x="280" y="381" width="50" height="46" as="geometry" />
        </mxCell>
        <mxCell id="5ITBzttvTcYRLU9-dRo0-10" value="&lt;span style=&quot;font-size: 12px&quot;&gt;关注数&lt;/span&gt;" style="ellipse;whiteSpace=wrap;html=1;fontSize=18;strokeColor=default;strokeWidth=2;" parent="1" vertex="1">
          <mxGeometry x="220" y="381" width="50" height="46" as="geometry" />
        </mxCell>
        <mxCell id="5ITBzttvTcYRLU9-dRo0-11" value="&lt;span style=&quot;font-size: 12px&quot;&gt;个性签名&lt;/span&gt;" style="ellipse;whiteSpace=wrap;html=1;fontSize=18;strokeColor=default;strokeWidth=2;" parent="1" vertex="1">
          <mxGeometry x="136.5" y="310" width="60" height="46" as="geometry" />
        </mxCell>
        <mxCell id="5ITBzttvTcYRLU9-dRo0-12" value="&lt;span style=&quot;font-size: 12px&quot;&gt;昵称&lt;/span&gt;" style="ellipse;whiteSpace=wrap;html=1;fontSize=18;strokeColor=default;strokeWidth=2;" parent="1" vertex="1">
          <mxGeometry x="123" y="164" width="60" height="46" as="geometry" />
        </mxCell>
        <mxCell id="5ITBzttvTcYRLU9-dRo0-13" value="&lt;span style=&quot;font-size: 12px&quot;&gt;用户解封时间&lt;/span&gt;" style="ellipse;whiteSpace=wrap;html=1;fontSize=18;strokeColor=default;strokeWidth=2;" parent="1" vertex="1">
          <mxGeometry x="-208.5" y="380" width="80" height="46" as="geometry" />
        </mxCell>
        <mxCell id="5ITBzttvTcYRLU9-dRo0-15" value="注册时间：未激活显示激活码（code+激活码），激活后为注册时间" style="text;html=1;strokeColor=none;fillColor=none;align=center;verticalAlign=middle;whiteSpace=wrap;rounded=0;fontSize=12;" parent="1" vertex="1">
          <mxGeometry x="-150" y="660" width="360" height="30" as="geometry" />
        </mxCell>
        <mxCell id="5ITBzttvTcYRLU9-dRo0-16" value="用户解封时间：未封时为0，封时为解封时间" style="text;html=1;strokeColor=none;fillColor=none;align=center;verticalAlign=middle;whiteSpace=wrap;rounded=0;fontSize=12;" parent="1" vertex="1">
          <mxGeometry x="-190" y="700" width="320" height="30" as="geometry" />
        </mxCell>
        <mxCell id="5ITBzttvTcYRLU9-dRo0-20" value="&lt;font style=&quot;font-size: 12px&quot;&gt;地址&lt;/font&gt;" style="ellipse;whiteSpace=wrap;html=1;fontSize=18;strokeColor=default;strokeWidth=2;" parent="1" vertex="1">
          <mxGeometry x="-210" y="234" width="60" height="46" as="geometry" />
        </mxCell>
        <mxCell id="5ITBzttvTcYRLU9-dRo0-21" value="&lt;span style=&quot;font-size: 12px&quot;&gt;头衔&lt;/span&gt;" style="ellipse;whiteSpace=wrap;html=1;fontSize=18;strokeColor=default;strokeWidth=2;" parent="1" vertex="1">
          <mxGeometry x="141.5" y="234" width="60" height="46" as="geometry" />
        </mxCell>
        <mxCell id="5ITBzttvTcYRLU9-dRo0-22" value="头衔以英文逗号分隔，如 ” 小编,圈主 “" style="text;html=1;strokeColor=none;fillColor=none;align=center;verticalAlign=middle;whiteSpace=wrap;rounded=0;fontSize=12;" parent="1" vertex="1">
          <mxGeometry x="-210" y="740" width="320" height="30" as="geometry" />
        </mxCell>
        <mxCell id="5ITBzttvTcYRLU9-dRo0-23" value="&lt;span style=&quot;font-size: 18px&quot;&gt;帖子表&lt;/span&gt;" style="rounded=0;whiteSpace=wrap;html=1;fillColor=#1ba1e2;strokeColor=#006EAF;strokeWidth=2;fontColor=#ffffff;" parent="1" vertex="1">
          <mxGeometry x="560" y="150" width="120" height="60" as="geometry" />
        </mxCell>
        <mxCell id="5ITBzttvTcYRLU9-dRo0-25" value="帖子类型：普通，活动（是否显示发布者，报名链接，是否过期），通知" style="text;html=1;strokeColor=none;fillColor=none;align=center;verticalAlign=middle;whiteSpace=wrap;rounded=0;fontSize=12;" parent="1" vertex="1">
          <mxGeometry x="340" y="660" width="440" height="30" as="geometry" />
        </mxCell>
        <mxCell id="5ITBzttvTcYRLU9-dRo0-26" value="&lt;span style=&quot;font-size: 12px&quot;&gt;帖子所属标签&lt;/span&gt;" style="ellipse;whiteSpace=wrap;html=1;fontSize=18;strokeColor=default;strokeWidth=2;" parent="1" vertex="1">
          <mxGeometry x="530" y="250" width="90" height="46" as="geometry" />
        </mxCell>
        <mxCell id="5ITBzttvTcYRLU9-dRo0-27" value="&lt;span style=&quot;font-size: 12px&quot;&gt;帖子类型&lt;/span&gt;" style="ellipse;whiteSpace=wrap;html=1;fontSize=18;strokeColor=default;strokeWidth=2;" parent="1" vertex="1">
          <mxGeometry x="450" y="250" width="60" height="46" as="geometry" />
        </mxCell>
        <mxCell id="5ITBzttvTcYRLU9-dRo0-28" value="&lt;span style=&quot;font-size: 12px&quot;&gt;帖子所属圈子&lt;/span&gt;" style="ellipse;whiteSpace=wrap;html=1;fontSize=18;strokeColor=default;strokeWidth=2;" parent="1" vertex="1">
          <mxGeometry x="630" y="250" width="90" height="46" as="geometry" />
        </mxCell>
        <mxCell id="5ITBzttvTcYRLU9-dRo0-29" value="帖子所属标签：以英文逗号分隔，最好只有一个标签" style="text;html=1;strokeColor=none;fillColor=none;align=center;verticalAlign=middle;whiteSpace=wrap;rounded=0;fontSize=12;" parent="1" vertex="1">
          <mxGeometry x="350" y="690" width="320" height="30" as="geometry" />
        </mxCell>
        <mxCell id="5ITBzttvTcYRLU9-dRo0-30" value="&lt;span style=&quot;font-size: 12px&quot;&gt;发布时间&lt;/span&gt;" style="ellipse;whiteSpace=wrap;html=1;fontSize=18;strokeColor=default;strokeWidth=2;" parent="1" vertex="1">
          <mxGeometry x="740" y="250" width="60" height="46" as="geometry" />
        </mxCell>
        <mxCell id="5ITBzttvTcYRLU9-dRo0-31" value="&lt;span style=&quot;font-size: 12px&quot;&gt;帖子所属用户&lt;/span&gt;" style="ellipse;whiteSpace=wrap;html=1;fontSize=18;strokeColor=default;strokeWidth=2;" parent="1" vertex="1">
          <mxGeometry x="620" y="304" width="90" height="46" as="geometry" />
        </mxCell>
        <mxCell id="5ITBzttvTcYRLU9-dRo0-32" value="&lt;span style=&quot;font-size: 12px&quot;&gt;原始正文&lt;/span&gt;" style="ellipse;whiteSpace=wrap;html=1;fontSize=18;strokeColor=default;strokeWidth=2;" parent="1" vertex="1">
          <mxGeometry x="445" y="304" width="70" height="46" as="geometry" />
        </mxCell>
        <mxCell id="5ITBzttvTcYRLU9-dRo0-33" value="&lt;span style=&quot;font-size: 12px&quot;&gt;文章状态&lt;/span&gt;" style="ellipse;whiteSpace=wrap;html=1;fontSize=18;strokeColor=default;strokeWidth=2;" parent="1" vertex="1">
          <mxGeometry x="740" y="304" width="68.5" height="46" as="geometry" />
        </mxCell>
        <mxCell id="5ITBzttvTcYRLU9-dRo0-34" value="&lt;span style=&quot;font-size: 12px&quot;&gt;点赞数量&amp;nbsp;&lt;/span&gt;" style="ellipse;whiteSpace=wrap;html=1;fontSize=18;strokeColor=default;strokeWidth=2;" parent="1" vertex="1">
          <mxGeometry x="540" y="483" width="60" height="46" as="geometry" />
        </mxCell>
        <mxCell id="5ITBzttvTcYRLU9-dRo0-35" value="&lt;span style=&quot;font-size: 12px&quot;&gt;评论数量&lt;/span&gt;" style="ellipse;whiteSpace=wrap;html=1;fontSize=18;strokeColor=default;strokeWidth=2;" parent="1" vertex="1">
          <mxGeometry x="620" y="483" width="60" height="46" as="geometry" />
        </mxCell>
        <mxCell id="5ITBzttvTcYRLU9-dRo0-37" value="&lt;span style=&quot;font-size: 12px&quot;&gt;标题&lt;/span&gt;" style="ellipse;whiteSpace=wrap;html=1;fontSize=18;strokeColor=default;strokeWidth=2;" parent="1" vertex="1">
          <mxGeometry x="540" y="304" width="60" height="46" as="geometry" />
        </mxCell>
        <mxCell id="5ITBzttvTcYRLU9-dRo0-39" value="&lt;span style=&quot;font-size: 12px&quot;&gt;允许评论&lt;/span&gt;" style="ellipse;whiteSpace=wrap;html=1;fontSize=18;strokeColor=default;strokeWidth=2;" parent="1" vertex="1">
          <mxGeometry x="635" y="368" width="60" height="46" as="geometry" />
        </mxCell>
        <mxCell id="5ITBzttvTcYRLU9-dRo0-40" value="&lt;span style=&quot;font-size: 12px&quot;&gt;是否置顶&lt;/span&gt;" style="ellipse;whiteSpace=wrap;html=1;fontSize=18;strokeColor=default;strokeWidth=2;" parent="1" vertex="1">
          <mxGeometry x="700" y="420" width="60" height="46" as="geometry" />
        </mxCell>
        <mxCell id="5ITBzttvTcYRLU9-dRo0-44" value="&lt;span style=&quot;font-size: 12px&quot;&gt;浏览数量&lt;/span&gt;" style="ellipse;whiteSpace=wrap;html=1;fontSize=18;strokeColor=default;strokeWidth=2;" parent="1" vertex="1">
          <mxGeometry x="545" y="424" width="60" height="46" as="geometry" />
        </mxCell>
        <mxCell id="5ITBzttvTcYRLU9-dRo0-45" value="&lt;span style=&quot;font-size: 12px&quot;&gt;推荐指数&lt;/span&gt;" style="ellipse;whiteSpace=wrap;html=1;fontSize=18;strokeColor=default;strokeWidth=2;" parent="1" vertex="1">
          <mxGeometry x="700" y="483" width="60" height="46" as="geometry" />
        </mxCell>
        <mxCell id="5ITBzttvTcYRLU9-dRo0-46" value="推荐指数：用于增加曝光的几率（分数），默认为0，最高100" style="text;html=1;strokeColor=none;fillColor=none;align=center;verticalAlign=middle;whiteSpace=wrap;rounded=0;fontSize=12;" parent="1" vertex="1">
          <mxGeometry x="330" y="600" width="400" height="30" as="geometry" />
        </mxCell>
        <mxCell id="5ITBzttvTcYRLU9-dRo0-47" value="推荐的算法：5*推荐指数+1*浏览数量+3*评论数量+2*点赞数量 + （时间小于10天）50 + （时间小于20天）20 +（时间大于20天）0" style="text;html=1;strokeColor=none;fillColor=none;align=center;verticalAlign=middle;whiteSpace=wrap;rounded=0;fontSize=12;" parent="1" vertex="1">
          <mxGeometry x="290" y="760" width="740" height="30" as="geometry" />
        </mxCell>
        <mxCell id="5ITBzttvTcYRLU9-dRo0-48" value="&lt;span style=&quot;font-size: 12px&quot;&gt;渲染后正文&lt;/span&gt;" style="ellipse;whiteSpace=wrap;html=1;fontSize=18;strokeColor=default;strokeWidth=2;" parent="1" vertex="1">
          <mxGeometry x="890" y="500" width="70" height="46" as="geometry" />
        </mxCell>
        <mxCell id="5ITBzttvTcYRLU9-dRo0-49" value="&lt;span style=&quot;font-size: 18px&quot;&gt;一级评论表&lt;/span&gt;" style="rounded=0;whiteSpace=wrap;html=1;fillColor=#1ba1e2;strokeColor=#006EAF;strokeWidth=2;fontColor=#ffffff;" parent="1" vertex="1">
          <mxGeometry x="-980" y="216" width="120" height="60" as="geometry" />
        </mxCell>
        <mxCell id="5ITBzttvTcYRLU9-dRo0-50" value="&lt;font style=&quot;font-size: 12px&quot;&gt;帖子id&lt;/font&gt;" style="ellipse;whiteSpace=wrap;html=1;fontSize=18;strokeColor=default;strokeWidth=2;" parent="1" vertex="1">
          <mxGeometry x="-1060" y="300" width="60" height="46" as="geometry" />
        </mxCell>
        <mxCell id="5ITBzttvTcYRLU9-dRo0-51" value="&lt;span style=&quot;font-size: 12px&quot;&gt;用户id&lt;/span&gt;" style="ellipse;whiteSpace=wrap;html=1;fontSize=18;strokeColor=default;strokeWidth=2;" parent="1" vertex="1">
          <mxGeometry x="-980" y="300" width="60" height="46" as="geometry" />
        </mxCell>
        <mxCell id="5ITBzttvTcYRLU9-dRo0-52" value="&lt;span style=&quot;font-size: 12px&quot;&gt;匿名id&lt;/span&gt;" style="ellipse;whiteSpace=wrap;html=1;fontSize=18;strokeColor=default;strokeWidth=2;" parent="1" vertex="1">
          <mxGeometry x="440" y="420" width="60" height="46" as="geometry" />
        </mxCell>
        <mxCell id="5ITBzttvTcYRLU9-dRo0-53" value="匿名id：默认为0表示非匿名，当为用户id是表示为匿名" style="text;html=1;strokeColor=none;fillColor=none;align=center;verticalAlign=middle;whiteSpace=wrap;rounded=0;fontSize=12;" parent="1" vertex="1">
          <mxGeometry x="360" y="720" width="320" height="30" as="geometry" />
        </mxCell>
        <mxCell id="5ITBzttvTcYRLU9-dRo0-54" value="&lt;span style=&quot;font-size: 12px&quot;&gt;审核状态&lt;/span&gt;" style="ellipse;whiteSpace=wrap;html=1;fontSize=18;strokeColor=default;strokeWidth=2;" parent="1" vertex="1">
          <mxGeometry x="620" y="420" width="60" height="46" as="geometry" />
        </mxCell>
        <mxCell id="5ITBzttvTcYRLU9-dRo0-55" value="审核时间：为0表示审核中，1通过，2表示未通过" style="text;html=1;strokeColor=none;fillColor=none;align=center;verticalAlign=middle;whiteSpace=wrap;rounded=0;fontSize=12;" parent="1" vertex="1">
          <mxGeometry x="340" y="630" width="310" height="30" as="geometry" />
        </mxCell>
        <mxCell id="5ITBzttvTcYRLU9-dRo0-56" value="&lt;span style=&quot;font-size: 12px&quot;&gt;IP地址&lt;/span&gt;" style="ellipse;whiteSpace=wrap;html=1;fontSize=18;strokeColor=default;strokeWidth=2;" parent="1" vertex="1">
          <mxGeometry x="-830" y="437" width="60" height="46" as="geometry" />
        </mxCell>
        <mxCell id="5ITBzttvTcYRLU9-dRo0-58" value="&lt;span style=&quot;font-size: 12px&quot;&gt;审核状态&lt;/span&gt;" style="ellipse;whiteSpace=wrap;html=1;fontSize=18;strokeColor=default;strokeWidth=2;" parent="1" vertex="1">
          <mxGeometry x="-1070" y="372" width="60" height="46" as="geometry" />
        </mxCell>
        <mxCell id="5ITBzttvTcYRLU9-dRo0-59" value="审核时间：为0表示审核中，1通过，2表示未通过" style="text;html=1;strokeColor=none;fillColor=none;align=center;verticalAlign=middle;whiteSpace=wrap;rounded=0;fontSize=12;" parent="1" vertex="1">
          <mxGeometry x="-1100" y="740" width="310" height="30" as="geometry" />
        </mxCell>
        <mxCell id="5ITBzttvTcYRLU9-dRo0-60" value="&lt;span style=&quot;font-size: 12px&quot;&gt;qq号码&lt;/span&gt;" style="ellipse;whiteSpace=wrap;html=1;fontSize=18;strokeColor=default;strokeWidth=2;" parent="1" vertex="1">
          <mxGeometry x="-28.5" y="318" width="60" height="46" as="geometry" />
        </mxCell>
        <mxCell id="5ITBzttvTcYRLU9-dRo0-61" value="用户组：普通，审核员" style="text;html=1;strokeColor=none;fillColor=none;align=center;verticalAlign=middle;whiteSpace=wrap;rounded=0;fontSize=12;" parent="1" vertex="1">
          <mxGeometry x="-247.5" y="780" width="320" height="30" as="geometry" />
        </mxCell>
        <mxCell id="5ITBzttvTcYRLU9-dRo0-62" value="&lt;span style=&quot;font-size: 12px&quot;&gt;时间&lt;/span&gt;" style="ellipse;whiteSpace=wrap;html=1;fontSize=18;strokeColor=default;strokeWidth=2;" parent="1" vertex="1">
          <mxGeometry x="-990" y="369" width="60" height="46" as="geometry" />
        </mxCell>
        <mxCell id="5ITBzttvTcYRLU9-dRo0-63" value="&lt;span style=&quot;font-size: 12px&quot;&gt;内容&lt;/span&gt;" style="ellipse;whiteSpace=wrap;html=1;fontSize=18;strokeColor=default;strokeWidth=2;" parent="1" vertex="1">
          <mxGeometry x="-900" y="304" width="60" height="46" as="geometry" />
        </mxCell>
        <mxCell id="5ITBzttvTcYRLU9-dRo0-64" value="&lt;span style=&quot;font-size: 12px&quot;&gt;状态&lt;/span&gt;" style="ellipse;whiteSpace=wrap;html=1;fontSize=18;strokeColor=default;strokeWidth=2;" parent="1" vertex="1">
          <mxGeometry x="-820" y="304" width="60" height="46" as="geometry" />
        </mxCell>
        <mxCell id="5ITBzttvTcYRLU9-dRo0-65" value="&lt;span style=&quot;font-size: 12px&quot;&gt;是否顶置&lt;/span&gt;" style="ellipse;whiteSpace=wrap;html=1;fontSize=18;strokeColor=default;strokeWidth=2;" parent="1" vertex="1">
          <mxGeometry x="-900" y="370" width="60" height="44" as="geometry" />
        </mxCell>
        <mxCell id="5ITBzttvTcYRLU9-dRo0-66" value="&lt;span style=&quot;font-size: 18px&quot;&gt;二级评论表（回复表）&lt;/span&gt;" style="rounded=0;whiteSpace=wrap;html=1;fillColor=#1ba1e2;strokeColor=#006EAF;strokeWidth=2;fontColor=#ffffff;" parent="1" vertex="1">
          <mxGeometry x="-560" y="220" width="120" height="60" as="geometry" />
        </mxCell>
        <mxCell id="5ITBzttvTcYRLU9-dRo0-67" value="&lt;font style=&quot;font-size: 12px&quot;&gt;帖子id&lt;/font&gt;" style="ellipse;whiteSpace=wrap;html=1;fontSize=18;strokeColor=default;strokeWidth=2;" parent="1" vertex="1">
          <mxGeometry x="-640" y="304" width="60" height="46" as="geometry" />
        </mxCell>
        <mxCell id="5ITBzttvTcYRLU9-dRo0-68" value="&lt;span style=&quot;font-size: 12px&quot;&gt;用户id&lt;/span&gt;" style="ellipse;whiteSpace=wrap;html=1;fontSize=18;strokeColor=default;strokeWidth=2;" parent="1" vertex="1">
          <mxGeometry x="-560" y="304" width="60" height="46" as="geometry" />
        </mxCell>
        <mxCell id="5ITBzttvTcYRLU9-dRo0-69" value="&lt;span style=&quot;font-size: 12px&quot;&gt;回复的评论id&lt;/span&gt;" style="ellipse;whiteSpace=wrap;html=1;fontSize=18;strokeColor=default;strokeWidth=2;" parent="1" vertex="1">
          <mxGeometry x="-545" y="434" width="90" height="46" as="geometry" />
        </mxCell>
        <mxCell id="5ITBzttvTcYRLU9-dRo0-70" value="&lt;span style=&quot;font-size: 12px&quot;&gt;审核状态&lt;/span&gt;" style="ellipse;whiteSpace=wrap;html=1;fontSize=18;strokeColor=default;strokeWidth=2;" parent="1" vertex="1">
          <mxGeometry x="-390" y="375" width="60" height="46" as="geometry" />
        </mxCell>
        <mxCell id="5ITBzttvTcYRLU9-dRo0-71" value="&lt;span style=&quot;font-size: 12px&quot;&gt;时间&lt;/span&gt;" style="ellipse;whiteSpace=wrap;html=1;fontSize=18;strokeColor=default;strokeWidth=2;" parent="1" vertex="1">
          <mxGeometry x="-640" y="370" width="60" height="46" as="geometry" />
        </mxCell>
        <mxCell id="5ITBzttvTcYRLU9-dRo0-72" value="&lt;span style=&quot;font-size: 12px&quot;&gt;内容&lt;/span&gt;" style="ellipse;whiteSpace=wrap;html=1;fontSize=18;strokeColor=default;strokeWidth=2;" parent="1" vertex="1">
          <mxGeometry x="-560" y="372" width="60" height="46" as="geometry" />
        </mxCell>
        <mxCell id="5ITBzttvTcYRLU9-dRo0-73" value="&lt;span style=&quot;font-size: 12px&quot;&gt;评论状态&lt;/span&gt;" style="ellipse;whiteSpace=wrap;html=1;fontSize=18;strokeColor=default;strokeWidth=2;" parent="1" vertex="1">
          <mxGeometry x="-475" y="375" width="60" height="46" as="geometry" />
        </mxCell>
        <mxCell id="5ITBzttvTcYRLU9-dRo0-75" value="&lt;span style=&quot;font-size: 12px&quot;&gt;回复数&lt;/span&gt;" style="ellipse;whiteSpace=wrap;html=1;fontSize=18;strokeColor=default;strokeWidth=2;" parent="1" vertex="1">
          <mxGeometry x="-1060" y="428" width="60" height="46" as="geometry" />
        </mxCell>
        <mxCell id="5ITBzttvTcYRLU9-dRo0-76" value="&lt;span style=&quot;font-size: 12px&quot;&gt;点赞数&lt;/span&gt;" style="ellipse;whiteSpace=wrap;html=1;fontSize=18;strokeColor=default;strokeWidth=2;" parent="1" vertex="1">
          <mxGeometry x="-980" y="428" width="60" height="46" as="geometry" />
        </mxCell>
        <mxCell id="5ITBzttvTcYRLU9-dRo0-77" value="评论排序算法：" style="text;html=1;strokeColor=none;fillColor=none;align=center;verticalAlign=middle;whiteSpace=wrap;rounded=0;fontSize=12;" parent="1" vertex="1">
          <mxGeometry x="-1120" y="780" width="400" height="30" as="geometry" />
        </mxCell>
        <mxCell id="5ITBzttvTcYRLU9-dRo0-79" value="&lt;span style=&quot;font-size: 12px&quot;&gt;被回复内容&lt;/span&gt;" style="ellipse;whiteSpace=wrap;html=1;fontSize=18;strokeColor=default;strokeWidth=2;" parent="1" vertex="1">
          <mxGeometry x="-470" y="304" width="90" height="46" as="geometry" />
        </mxCell>
        <mxCell id="5ITBzttvTcYRLU9-dRo0-80" value="回复的评论既可以是一级评论，也可以是二级评论" style="text;html=1;strokeColor=none;fillColor=none;align=center;verticalAlign=middle;whiteSpace=wrap;rounded=0;fontSize=12;" parent="1" vertex="1">
          <mxGeometry x="-640" y="740" width="310" height="30" as="geometry" />
        </mxCell>
        <mxCell id="IicrX0Bx84IDNbMDFtdl-1" value="&lt;span style=&quot;font-size: 12px&quot;&gt;连续登录天数&lt;/span&gt;" style="ellipse;whiteSpace=wrap;html=1;fontSize=18;strokeColor=default;strokeWidth=2;" parent="1" vertex="1">
          <mxGeometry x="101.5" y="437" width="78.5" height="46" as="geometry" />
        </mxCell>
        <mxCell id="IicrX0Bx84IDNbMDFtdl-2" value="&lt;span style=&quot;font-size: 12px&quot;&gt;积分数&lt;/span&gt;" style="ellipse;whiteSpace=wrap;html=1;fontSize=18;strokeColor=default;strokeWidth=2;" parent="1" vertex="1">
          <mxGeometry x="160" y="381" width="50" height="46" as="geometry" />
        </mxCell>
        <mxCell id="IicrX0Bx84IDNbMDFtdl-3" value="&lt;span style=&quot;font-size: 12px&quot;&gt;邀请码&lt;/span&gt;" style="ellipse;whiteSpace=wrap;html=1;fontSize=18;strokeColor=default;strokeWidth=2;" parent="1" vertex="1">
          <mxGeometry x="-76.75" y="490" width="60" height="46" as="geometry" />
        </mxCell>
        <mxCell id="IicrX0Bx84IDNbMDFtdl-6" value="&lt;span style=&quot;font-size: 18px&quot;&gt;配置表&lt;/span&gt;" style="rounded=0;whiteSpace=wrap;html=1;fillColor=#1ba1e2;strokeColor=#006EAF;strokeWidth=2;fontColor=#ffffff;" parent="1" vertex="1">
          <mxGeometry x="-970" y="910" width="130" height="60" as="geometry" />
        </mxCell>
        <mxCell id="IicrX0Bx84IDNbMDFtdl-7" value="&lt;font style=&quot;font-size: 12px&quot;&gt;登录积分数量&lt;/font&gt;" style="ellipse;whiteSpace=wrap;html=1;fontSize=18;strokeColor=default;strokeWidth=2;" parent="1" vertex="1">
          <mxGeometry x="-957.5" y="1014" width="90" height="46" as="geometry" />
        </mxCell>
        <mxCell id="IicrX0Bx84IDNbMDFtdl-8" value="&lt;span style=&quot;font-size: 12px&quot;&gt;评论自动审核&lt;/span&gt;" style="ellipse;whiteSpace=wrap;html=1;fontSize=18;strokeColor=default;strokeWidth=2;" parent="1" vertex="1">
          <mxGeometry x="-957.5" y="1074" width="105" height="46" as="geometry" />
        </mxCell>
        <mxCell id="IicrX0Bx84IDNbMDFtdl-9" value="&lt;span style=&quot;font-size: 12px&quot;&gt;允许注册&lt;/span&gt;" style="ellipse;whiteSpace=wrap;html=1;fontSize=18;strokeColor=default;strokeWidth=2;" parent="1" vertex="1">
          <mxGeometry x="-957.5" y="1130" width="90" height="46" as="geometry" />
        </mxCell>
        <mxCell id="IicrX0Bx84IDNbMDFtdl-11" value="&lt;span style=&quot;font-size: 12px&quot;&gt;站长qq&lt;/span&gt;" style="ellipse;whiteSpace=wrap;html=1;fontSize=18;strokeColor=default;strokeWidth=2;" parent="1" vertex="1">
          <mxGeometry x="-1030" y="1074" width="60" height="46" as="geometry" />
        </mxCell>
        <mxCell id="IicrX0Bx84IDNbMDFtdl-12" value="&lt;span style=&quot;font-size: 12px&quot;&gt;站点名称&lt;/span&gt;" style="ellipse;whiteSpace=wrap;html=1;fontSize=18;strokeColor=default;strokeWidth=2;" parent="1" vertex="1">
          <mxGeometry x="-1030" y="1014" width="60" height="46" as="geometry" />
        </mxCell>
        <mxCell id="IicrX0Bx84IDNbMDFtdl-14" value="&lt;span style=&quot;font-size: 12px&quot;&gt;帖子自动审核&lt;/span&gt;" style="ellipse;whiteSpace=wrap;html=1;fontSize=18;strokeColor=default;strokeWidth=2;" parent="1" vertex="1">
          <mxGeometry x="-952.5" y="1190" width="90" height="46" as="geometry" />
        </mxCell>
        <mxCell id="IicrX0Bx84IDNbMDFtdl-17" value="登录积分数量：是一个json对象，{&quot;10&quot;:2,&quot;20&quot;:5,&quot;40&quot;:8}" style="text;html=1;strokeColor=none;fillColor=none;align=center;verticalAlign=middle;whiteSpace=wrap;rounded=0;" parent="1" vertex="1">
          <mxGeometry x="-1130" y="1370" width="390" height="30" as="geometry" />
        </mxCell>
        <mxCell id="IicrX0Bx84IDNbMDFtdl-18" value="&lt;span style=&quot;font-size: 12px&quot;&gt;设备&lt;/span&gt;" style="ellipse;whiteSpace=wrap;html=1;fontSize=18;strokeColor=default;strokeWidth=2;" parent="1" vertex="1">
          <mxGeometry x="-900" y="428" width="60" height="46" as="geometry" />
        </mxCell>
        <mxCell id="IicrX0Bx84IDNbMDFtdl-19" value="&lt;span style=&quot;font-size: 12px&quot;&gt;IP地址&lt;/span&gt;" style="ellipse;whiteSpace=wrap;html=1;fontSize=18;strokeColor=default;strokeWidth=2;" parent="1" vertex="1">
          <mxGeometry x="-440" y="433" width="60" height="46" as="geometry" />
        </mxCell>
        <mxCell id="IicrX0Bx84IDNbMDFtdl-20" value="&lt;span style=&quot;font-size: 12px&quot;&gt;设备&lt;/span&gt;" style="ellipse;whiteSpace=wrap;html=1;fontSize=18;strokeColor=default;strokeWidth=2;" parent="1" vertex="1">
          <mxGeometry x="-370" y="433" width="60" height="46" as="geometry" />
        </mxCell>
        <mxCell id="IicrX0Bx84IDNbMDFtdl-21" value="name" style="rounded=1;whiteSpace=wrap;html=1;" parent="1" vertex="1">
          <mxGeometry x="-1140" y="1030" width="70" height="30" as="geometry" />
        </mxCell>
        <mxCell id="IicrX0Bx84IDNbMDFtdl-22" value="value" style="rounded=1;whiteSpace=wrap;html=1;" parent="1" vertex="1">
          <mxGeometry x="-790" y="1014" width="70" height="30" as="geometry" />
        </mxCell>
        <mxCell id="IicrX0Bx84IDNbMDFtdl-28" value="&lt;span style=&quot;font-size: 12px&quot;&gt;站点地址&lt;/span&gt;&lt;span style=&quot;color: rgba(0 , 0 , 0 , 0) ; font-family: monospace ; font-size: 0px&quot;&gt;%3CmxGraphModel%3E%3Croot%3E%3CmxCell%20id%3D%220%22%2F%3E%3CmxCell%20id%3D%221%22%20parent%3D%220%22%2F%3E%3CmxCell%20id%3D%222%22%20value%3D%22%26lt%3Bspan%20style%3D%26quot%3Bfont-size%3A%2012px%26quot%3B%26gt%3B%E7%AB%99%E7%82%B9%E5%90%8D%E7%A7%B0%26lt%3B%2Fspan%26gt%3B%22%20style%3D%22ellipse%3BwhiteSpace%3Dwrap%3Bhtml%3D1%3BfontSize%3D18%3BstrokeColor%3Ddefault%3BstrokeWidth%3D2%3B%22%20vertex%3D%221%22%20parent%3D%221%22%3E%3CmxGeometry%20x%3D%22-1040%22%20y%3D%221050%22%20width%3D%2260%22%20height%3D%2246%22%20as%3D%22geometry%22%2F%3E%3C%2FmxCell%3E%3C%2Froot%3E%3C%2FmxGraphModel%3E&lt;/span&gt;" style="ellipse;whiteSpace=wrap;html=1;fontSize=18;strokeColor=default;strokeWidth=2;" parent="1" vertex="1">
          <mxGeometry x="-1030" y="1130" width="60" height="46" as="geometry" />
        </mxCell>
        <mxCell id="IicrX0Bx84IDNbMDFtdl-29" value="&lt;span style=&quot;font-size: 12px&quot;&gt;站点描述&lt;/span&gt;" style="ellipse;whiteSpace=wrap;html=1;fontSize=18;strokeColor=default;strokeWidth=2;" parent="1" vertex="1">
          <mxGeometry x="-1030" y="1190" width="60" height="46" as="geometry" />
        </mxCell>
        <mxCell id="IicrX0Bx84IDNbMDFtdl-30" value="&lt;span style=&quot;font-size: 12px&quot;&gt;邀请人数&lt;/span&gt;" style="ellipse;whiteSpace=wrap;html=1;fontSize=18;strokeColor=default;strokeWidth=2;" parent="1" vertex="1">
          <mxGeometry x="41.5" y="437" width="50" height="46" as="geometry" />
        </mxCell>
        <mxCell id="IicrX0Bx84IDNbMDFtdl-31" value="&lt;span style=&quot;font-size: 12px&quot;&gt;连续登录&lt;br&gt;天数激活&lt;/span&gt;" style="ellipse;whiteSpace=wrap;html=1;fontSize=18;strokeColor=default;strokeWidth=2;" parent="1" vertex="1">
          <mxGeometry x="-952.5" y="1250" width="80" height="46" as="geometry" />
        </mxCell>
        <mxCell id="IicrX0Bx84IDNbMDFtdl-33" value="&lt;span style=&quot;font-size: 12px&quot;&gt;邀请几人激活&lt;/span&gt;" style="ellipse;whiteSpace=wrap;html=1;fontSize=18;strokeColor=default;strokeWidth=2;" parent="1" vertex="1">
          <mxGeometry x="-952.5" y="1304" width="80" height="46" as="geometry" />
        </mxCell>
        <mxCell id="IicrX0Bx84IDNbMDFtdl-35" value="&lt;span style=&quot;font-size: 18px&quot;&gt;圈子表&lt;/span&gt;" style="rounded=0;whiteSpace=wrap;html=1;fillColor=#1ba1e2;strokeColor=#006EAF;strokeWidth=2;fontColor=#ffffff;" parent="1" vertex="1">
          <mxGeometry x="-530" y="934" width="120" height="60" as="geometry" />
        </mxCell>
        <mxCell id="IicrX0Bx84IDNbMDFtdl-36" value="&lt;font style=&quot;font-size: 12px&quot;&gt;圈主id&lt;/font&gt;" style="ellipse;whiteSpace=wrap;html=1;fontSize=18;strokeColor=default;strokeWidth=2;" parent="1" vertex="1">
          <mxGeometry x="-610" y="1018" width="60" height="46" as="geometry" />
        </mxCell>
        <mxCell id="IicrX0Bx84IDNbMDFtdl-37" value="&lt;span style=&quot;font-size: 12px&quot;&gt;管理员id&lt;/span&gt;" style="ellipse;whiteSpace=wrap;html=1;fontSize=18;strokeColor=default;strokeWidth=2;" parent="1" vertex="1">
          <mxGeometry x="-530" y="1018" width="60" height="46" as="geometry" />
        </mxCell>
        <mxCell id="IicrX0Bx84IDNbMDFtdl-40" value="&lt;span style=&quot;font-size: 12px&quot;&gt;圈子帖子数&lt;/span&gt;" style="ellipse;whiteSpace=wrap;html=1;fontSize=18;strokeColor=default;strokeWidth=2;" parent="1" vertex="1">
          <mxGeometry x="-610" y="1078" width="70" height="46" as="geometry" />
        </mxCell>
        <mxCell id="IicrX0Bx84IDNbMDFtdl-41" value="&lt;span style=&quot;font-size: 12px&quot;&gt;圈子关注数&lt;/span&gt;" style="ellipse;whiteSpace=wrap;html=1;fontSize=18;strokeColor=default;strokeWidth=2;" parent="1" vertex="1">
          <mxGeometry x="-530" y="1078" width="70" height="46" as="geometry" />
        </mxCell>
        <mxCell id="IicrX0Bx84IDNbMDFtdl-42" value="&lt;span style=&quot;font-size: 12px&quot;&gt;圈子创建时间&lt;/span&gt;" style="ellipse;whiteSpace=wrap;html=1;fontSize=18;strokeColor=default;strokeWidth=2;" parent="1" vertex="1">
          <mxGeometry x="-450" y="1078" width="80" height="46" as="geometry" />
        </mxCell>
        <mxCell id="IicrX0Bx84IDNbMDFtdl-43" value="&lt;span style=&quot;font-size: 12px&quot;&gt;圈子名称&lt;/span&gt;" style="ellipse;whiteSpace=wrap;html=1;fontSize=18;strokeColor=default;strokeWidth=2;" parent="1" vertex="1">
          <mxGeometry x="-460" y="1018" width="60" height="46" as="geometry" />
        </mxCell>
        <mxCell id="IicrX0Bx84IDNbMDFtdl-47" value="&lt;span style=&quot;font-size: 12px&quot;&gt;圈子描述&lt;/span&gt;" style="ellipse;whiteSpace=wrap;html=1;fontSize=18;strokeColor=default;strokeWidth=2;" parent="1" vertex="1">
          <mxGeometry x="-390" y="1016" width="60" height="46" as="geometry" />
        </mxCell>
        <mxCell id="IicrX0Bx84IDNbMDFtdl-48" value="&lt;span style=&quot;font-size: 12px&quot;&gt;圈子头像&lt;/span&gt;" style="ellipse;whiteSpace=wrap;html=1;fontSize=18;strokeColor=default;strokeWidth=2;" parent="1" vertex="1">
          <mxGeometry x="-320" y="1016" width="60" height="46" as="geometry" />
        </mxCell>
        <mxCell id="IicrX0Bx84IDNbMDFtdl-51" value="&lt;span style=&quot;font-size: 12px&quot;&gt;是否精华&lt;/span&gt;" style="ellipse;whiteSpace=wrap;html=1;fontSize=18;strokeColor=default;strokeWidth=2;" parent="1" vertex="1">
          <mxGeometry x="770" y="420" width="60" height="46" as="geometry" />
        </mxCell>
        <mxCell id="IicrX0Bx84IDNbMDFtdl-52" value="&lt;span style=&quot;font-size: 18px&quot;&gt;消息表&lt;/span&gt;" style="rounded=0;whiteSpace=wrap;html=1;fillColor=#1ba1e2;strokeColor=#006EAF;strokeWidth=2;fontColor=#ffffff;" parent="1" vertex="1">
          <mxGeometry x="-88.5" y="934" width="120" height="60" as="geometry" />
        </mxCell>
        <mxCell id="IicrX0Bx84IDNbMDFtdl-53" value="&lt;font style=&quot;font-size: 12px&quot;&gt;发送id&lt;/font&gt;" style="ellipse;whiteSpace=wrap;html=1;fontSize=18;strokeColor=default;strokeWidth=2;" parent="1" vertex="1">
          <mxGeometry x="-168.5" y="1018" width="60" height="46" as="geometry" />
        </mxCell>
        <mxCell id="IicrX0Bx84IDNbMDFtdl-54" value="&lt;span style=&quot;font-size: 12px&quot;&gt;接收id&lt;/span&gt;" style="ellipse;whiteSpace=wrap;html=1;fontSize=18;strokeColor=default;strokeWidth=2;" parent="1" vertex="1">
          <mxGeometry x="-88.5" y="1016" width="60" height="46" as="geometry" />
        </mxCell>
        <mxCell id="IicrX0Bx84IDNbMDFtdl-57" value="&lt;span style=&quot;font-size: 12px&quot;&gt;消息时间&lt;/span&gt;" style="ellipse;whiteSpace=wrap;html=1;fontSize=18;strokeColor=default;strokeWidth=2;" parent="1" vertex="1">
          <mxGeometry x="-168.5" y="1078" width="68.5" height="46" as="geometry" />
        </mxCell>
        <mxCell id="IicrX0Bx84IDNbMDFtdl-58" value="&lt;span style=&quot;font-size: 12px&quot;&gt;资源id&lt;/span&gt;" style="ellipse;whiteSpace=wrap;html=1;fontSize=18;strokeColor=default;strokeWidth=2;" parent="1" vertex="1">
          <mxGeometry x="-18.5" y="1018" width="60" height="46" as="geometry" />
        </mxCell>
        <mxCell id="IicrX0Bx84IDNbMDFtdl-59" value="&lt;span style=&quot;font-size: 12px&quot;&gt;消息类型&lt;/span&gt;" style="ellipse;whiteSpace=wrap;html=1;fontSize=18;strokeColor=default;strokeWidth=2;" parent="1" vertex="1">
          <mxGeometry x="51.5" y="1016" width="60" height="46" as="geometry" />
        </mxCell>
        <mxCell id="IicrX0Bx84IDNbMDFtdl-60" value="&lt;span style=&quot;font-size: 12px&quot;&gt;是否已读&lt;/span&gt;" style="ellipse;whiteSpace=wrap;html=1;fontSize=18;strokeColor=default;strokeWidth=2;" parent="1" vertex="1">
          <mxGeometry x="-88.5" y="1078" width="60" height="46" as="geometry" />
        </mxCell>
        <mxCell id="IicrX0Bx84IDNbMDFtdl-61" value="消息类型：关注，私信，系统，回复，@我，点赞" style="text;html=1;strokeColor=none;fillColor=none;align=center;verticalAlign=middle;whiteSpace=wrap;rounded=0;" parent="1" vertex="1">
          <mxGeometry x="-208.5" y="1176" width="323.5" height="30" as="geometry" />
        </mxCell>
        <mxCell id="IicrX0Bx84IDNbMDFtdl-62" value="&lt;span style=&quot;font-size: 12px&quot;&gt;是否认证&lt;/span&gt;" style="ellipse;whiteSpace=wrap;html=1;fontSize=18;strokeColor=default;strokeWidth=2;" parent="1" vertex="1">
          <mxGeometry x="-208.5" y="434" width="60" height="46" as="geometry" />
        </mxCell>
        <mxCell id="IicrX0Bx84IDNbMDFtdl-63" value="&lt;span style=&quot;font-size: 12px&quot;&gt;认证描述&lt;/span&gt;" style="ellipse;whiteSpace=wrap;html=1;fontSize=18;strokeColor=default;strokeWidth=2;" parent="1" vertex="1">
          <mxGeometry x="-140" y="434" width="60" height="46" as="geometry" />
        </mxCell>
        <mxCell id="IicrX0Bx84IDNbMDFtdl-64" value="&lt;span style=&quot;font-size: 12px&quot;&gt;消息内容&lt;/span&gt;" style="ellipse;whiteSpace=wrap;html=1;fontSize=18;strokeColor=default;strokeWidth=2;" parent="1" vertex="1">
          <mxGeometry x="-20" y="1078" width="60" height="46" as="geometry" />
        </mxCell>
        <mxCell id="IicrX0Bx84IDNbMDFtdl-65" value="&lt;span style=&quot;font-size: 18px&quot;&gt;积分日志表&lt;/span&gt;" style="rounded=0;whiteSpace=wrap;html=1;fillColor=#1ba1e2;strokeColor=#006EAF;strokeWidth=2;fontColor=#ffffff;" parent="1" vertex="1">
          <mxGeometry x="350" y="970" width="120" height="60" as="geometry" />
        </mxCell>
        <mxCell id="IicrX0Bx84IDNbMDFtdl-66" value="&lt;span style=&quot;font-size: 18px&quot;&gt;系统日志表&lt;/span&gt;" style="rounded=0;whiteSpace=wrap;html=1;fillColor=#1ba1e2;strokeColor=#006EAF;strokeWidth=2;fontColor=#ffffff;" parent="1" vertex="1">
          <mxGeometry x="350" y="1078" width="120" height="60" as="geometry" />
        </mxCell>
        <mxCell id="IicrX0Bx84IDNbMDFtdl-67" value="&lt;span style=&quot;font-size: 12px&quot;&gt;是否在线&lt;/span&gt;" style="ellipse;whiteSpace=wrap;html=1;fontSize=18;strokeColor=default;strokeWidth=2;" parent="1" vertex="1">
          <mxGeometry x="-67" y="434" width="60" height="46" as="geometry" />
        </mxCell>
        <mxCell id="IicrX0Bx84IDNbMDFtdl-68" value="&lt;span style=&quot;font-size: 18px&quot;&gt;关注表&lt;/span&gt;" style="rounded=0;whiteSpace=wrap;html=1;fillColor=#1ba1e2;strokeColor=#006EAF;strokeWidth=2;fontColor=#ffffff;" parent="1" vertex="1">
          <mxGeometry x="-1030" y="1460" width="120" height="60" as="geometry" />
        </mxCell>
        <mxCell id="IicrX0Bx84IDNbMDFtdl-69" value="&lt;font style=&quot;font-size: 12px&quot;&gt;关注类型&lt;/font&gt;" style="ellipse;whiteSpace=wrap;html=1;fontSize=18;strokeColor=default;strokeWidth=2;" parent="1" vertex="1">
          <mxGeometry x="-1110" y="1544" width="60" height="46" as="geometry" />
        </mxCell>
        <mxCell id="IicrX0Bx84IDNbMDFtdl-70" value="&lt;span style=&quot;font-size: 12px&quot;&gt;资源id&lt;/span&gt;" style="ellipse;whiteSpace=wrap;html=1;fontSize=18;strokeColor=default;strokeWidth=2;" parent="1" vertex="1">
          <mxGeometry x="-1040" y="1544" width="60" height="46" as="geometry" />
        </mxCell>
        <mxCell id="IicrX0Bx84IDNbMDFtdl-74" value="&lt;span style=&quot;font-size: 12px&quot;&gt;关注时间&lt;/span&gt;" style="ellipse;whiteSpace=wrap;html=1;fontSize=18;strokeColor=default;strokeWidth=2;" parent="1" vertex="1">
          <mxGeometry x="-970" y="1544" width="60" height="46" as="geometry" />
        </mxCell>
        <mxCell id="IicrX0Bx84IDNbMDFtdl-77" value="&lt;span style=&quot;font-size: 18px&quot;&gt;收藏表&lt;/span&gt;" style="rounded=0;whiteSpace=wrap;html=1;fillColor=#1ba1e2;strokeColor=#006EAF;strokeWidth=2;fontColor=#ffffff;" parent="1" vertex="1">
          <mxGeometry x="-737.5" y="1460" width="120" height="60" as="geometry" />
        </mxCell>
        <mxCell id="IicrX0Bx84IDNbMDFtdl-79" value="&lt;span style=&quot;font-size: 12px&quot;&gt;用户id&lt;/span&gt;" style="ellipse;whiteSpace=wrap;html=1;fontSize=18;strokeColor=default;strokeWidth=2;" parent="1" vertex="1">
          <mxGeometry x="-760" y="1536" width="60" height="46" as="geometry" />
        </mxCell>
        <mxCell id="IicrX0Bx84IDNbMDFtdl-80" value="&lt;span style=&quot;font-size: 12px&quot;&gt;收藏&lt;/span&gt;" style="ellipse;whiteSpace=wrap;html=1;fontSize=18;strokeColor=default;strokeWidth=2;" parent="1" vertex="1">
          <mxGeometry x="-677.5" y="1536" width="60" height="46" as="geometry" />
        </mxCell>
        <mxCell id="IicrX0Bx84IDNbMDFtdl-85" value="&lt;span style=&quot;font-size: 12px&quot;&gt;用户id&lt;/span&gt;" style="ellipse;whiteSpace=wrap;html=1;fontSize=18;strokeColor=default;strokeWidth=2;" parent="1" vertex="1">
          <mxGeometry x="-900" y="1544" width="60" height="46" as="geometry" />
        </mxCell>
        <mxCell id="IicrX0Bx84IDNbMDFtdl-86" value="&lt;span style=&quot;font-size: 18px&quot;&gt;拉黑表&lt;/span&gt;" style="rounded=0;whiteSpace=wrap;html=1;fillColor=#1ba1e2;strokeColor=#006EAF;strokeWidth=2;fontColor=#ffffff;" parent="1" vertex="1">
          <mxGeometry x="-517.5" y="1460" width="120" height="60" as="geometry" />
        </mxCell>
        <mxCell id="IicrX0Bx84IDNbMDFtdl-87" value="&lt;font style=&quot;font-size: 12px&quot;&gt;拉黑的用户id&lt;/font&gt;" style="ellipse;whiteSpace=wrap;html=1;fontSize=18;strokeColor=default;strokeWidth=2;" parent="1" vertex="1">
          <mxGeometry x="-457.5" y="1544" width="80" height="46" as="geometry" />
        </mxCell>
        <mxCell id="IicrX0Bx84IDNbMDFtdl-88" value="&lt;span style=&quot;font-size: 12px&quot;&gt;用户id&lt;/span&gt;" style="ellipse;whiteSpace=wrap;html=1;fontSize=18;strokeColor=default;strokeWidth=2;" parent="1" vertex="1">
          <mxGeometry x="-527.5" y="1544" width="60" height="46" as="geometry" />
        </mxCell>
        <mxCell id="IicrX0Bx84IDNbMDFtdl-90" value="&lt;span style=&quot;font-size: 18px&quot;&gt;举报表&lt;/span&gt;" style="rounded=0;whiteSpace=wrap;html=1;fillColor=#1ba1e2;strokeColor=#006EAF;strokeWidth=2;fontColor=#ffffff;" parent="1" vertex="1">
          <mxGeometry x="-286" y="1460" width="120" height="60" as="geometry" />
        </mxCell>
        <mxCell id="IicrX0Bx84IDNbMDFtdl-91" value="&lt;span style=&quot;font-size: 12px&quot;&gt;举报类型&lt;/span&gt;" style="ellipse;whiteSpace=wrap;html=1;fontSize=18;strokeColor=default;strokeWidth=2;" parent="1" vertex="1">
          <mxGeometry x="-326" y="1544" width="60" height="46" as="geometry" />
        </mxCell>
        <mxCell id="IicrX0Bx84IDNbMDFtdl-92" value="&lt;span style=&quot;font-size: 12px&quot;&gt;举报资源id&lt;/span&gt;" style="ellipse;whiteSpace=wrap;html=1;fontSize=18;strokeColor=default;strokeWidth=2;" parent="1" vertex="1">
          <mxGeometry x="-256" y="1544" width="68.5" height="46" as="geometry" />
        </mxCell>
        <mxCell id="IicrX0Bx84IDNbMDFtdl-93" value="&lt;span style=&quot;font-size: 12px&quot;&gt;举报时间&lt;/span&gt;" style="ellipse;whiteSpace=wrap;html=1;fontSize=18;strokeColor=default;strokeWidth=2;" parent="1" vertex="1">
          <mxGeometry x="-177.5" y="1544" width="60" height="46" as="geometry" />
        </mxCell>
        <mxCell id="IicrX0Bx84IDNbMDFtdl-94" value="举报类型：评论，回复，私信，帖子，圈子" style="text;html=1;strokeColor=none;fillColor=none;align=center;verticalAlign=middle;whiteSpace=wrap;rounded=0;" parent="1" vertex="1">
          <mxGeometry x="-354.5" y="1610" width="266" height="30" as="geometry" />
        </mxCell>
        <mxCell id="IicrX0Bx84IDNbMDFtdl-95" value="&lt;span style=&quot;font-size: 12px&quot;&gt;举报内容&lt;/span&gt;" style="ellipse;whiteSpace=wrap;html=1;fontSize=18;strokeColor=default;strokeWidth=2;" parent="1" vertex="1">
          <mxGeometry x="-112.75" y="1544" width="62.75" height="46" as="geometry" />
        </mxCell>
        <mxCell id="IicrX0Bx84IDNbMDFtdl-98" value="&lt;span style=&quot;font-size: 12px&quot;&gt;收藏数&lt;/span&gt;" style="ellipse;whiteSpace=wrap;html=1;fontSize=18;strokeColor=default;strokeWidth=2;" parent="1" vertex="1">
          <mxGeometry x="41.5" y="381" width="48.5" height="46" as="geometry" />
        </mxCell>
        <mxCell id="IicrX0Bx84IDNbMDFtdl-99" value="&lt;span style=&quot;font-size: 12px&quot;&gt;帖子数&lt;/span&gt;" style="ellipse;whiteSpace=wrap;html=1;fontSize=18;strokeColor=default;strokeWidth=2;" parent="1" vertex="1">
          <mxGeometry x="101.5" y="381" width="48.5" height="46" as="geometry" />
        </mxCell>
        <mxCell id="IicrX0Bx84IDNbMDFtdl-100" value="&lt;span style=&quot;font-size: 18px&quot;&gt;图片表&lt;/span&gt;" style="rounded=0;whiteSpace=wrap;html=1;fillColor=#1ba1e2;strokeColor=#006EAF;strokeWidth=2;fontColor=#ffffff;" parent="1" vertex="1">
          <mxGeometry x="42.5" y="1440" width="120" height="60" as="geometry" />
        </mxCell>
        <mxCell id="IicrX0Bx84IDNbMDFtdl-101" value="&lt;span style=&quot;font-size: 12px&quot;&gt;图片键名&lt;/span&gt;" style="ellipse;whiteSpace=wrap;html=1;fontSize=18;strokeColor=default;strokeWidth=2;" parent="1" vertex="1">
          <mxGeometry x="2.5" y="1524" width="60" height="46" as="geometry" />
        </mxCell>
        <mxCell id="IicrX0Bx84IDNbMDFtdl-102" value="&lt;span style=&quot;font-size: 12px&quot;&gt;图片路径&lt;/span&gt;" style="ellipse;whiteSpace=wrap;html=1;fontSize=18;strokeColor=default;strokeWidth=2;" parent="1" vertex="1">
          <mxGeometry x="72.5" y="1524" width="68.5" height="46" as="geometry" />
        </mxCell>
        <mxCell id="IicrX0Bx84IDNbMDFtdl-103" value="&lt;span style=&quot;font-size: 12px&quot;&gt;图片文件名&lt;/span&gt;" style="ellipse;whiteSpace=wrap;html=1;fontSize=18;strokeColor=default;strokeWidth=2;" parent="1" vertex="1">
          <mxGeometry x="151" y="1524" width="67.5" height="46" as="geometry" />
        </mxCell>
        <mxCell id="IicrX0Bx84IDNbMDFtdl-104" value="&lt;span style=&quot;font-size: 12px&quot;&gt;上传时间&lt;/span&gt;" style="ellipse;whiteSpace=wrap;html=1;fontSize=18;strokeColor=default;strokeWidth=2;" parent="1" vertex="1">
          <mxGeometry x="228.5" y="1524" width="60" height="46" as="geometry" />
        </mxCell>
        <mxCell id="IicrX0Bx84IDNbMDFtdl-105" value="&lt;span style=&quot;font-size: 12px&quot;&gt;资源id&lt;/span&gt;" style="ellipse;whiteSpace=wrap;html=1;fontSize=18;strokeColor=default;strokeWidth=2;" parent="1" vertex="1">
          <mxGeometry y="1582" width="60" height="46" as="geometry" />
        </mxCell>
        <mxCell id="IicrX0Bx84IDNbMDFtdl-106" value="&lt;span style=&quot;font-size: 12px&quot;&gt;用户id&lt;/span&gt;" style="ellipse;whiteSpace=wrap;html=1;fontSize=18;strokeColor=default;strokeWidth=2;" parent="1" vertex="1">
          <mxGeometry x="70" y="1582" width="60" height="46" as="geometry" />
        </mxCell>
        <mxCell id="IicrX0Bx84IDNbMDFtdl-107" value="&lt;span style=&quot;font-size: 12px&quot;&gt;允许上传类型&lt;/span&gt;" style="ellipse;whiteSpace=wrap;html=1;fontSize=18;strokeColor=default;strokeWidth=2;" parent="1" vertex="1">
          <mxGeometry x="-1030" y="1250" width="60" height="46" as="geometry" />
        </mxCell>
        <mxCell id="IicrX0Bx84IDNbMDFtdl-108" value="&lt;span style=&quot;font-size: 18px&quot;&gt;标签表&lt;/span&gt;" style="rounded=0;whiteSpace=wrap;html=1;fillColor=#1ba1e2;strokeColor=#006EAF;strokeWidth=2;fontColor=#ffffff;" parent="1" vertex="1">
          <mxGeometry x="382.5" y="1440" width="120" height="60" as="geometry" />
        </mxCell>
        <mxCell id="IicrX0Bx84IDNbMDFtdl-109" value="&lt;span style=&quot;font-size: 12px&quot;&gt;标签名&lt;/span&gt;" style="ellipse;whiteSpace=wrap;html=1;fontSize=18;strokeColor=default;strokeWidth=2;" parent="1" vertex="1">
          <mxGeometry x="371.5" y="1524" width="60" height="46" as="geometry" />
        </mxCell>
        <mxCell id="IicrX0Bx84IDNbMDFtdl-110" value="&lt;span style=&quot;font-size: 12px&quot;&gt;资源id&lt;/span&gt;" style="ellipse;whiteSpace=wrap;html=1;fontSize=18;strokeColor=default;strokeWidth=2;" parent="1" vertex="1">
          <mxGeometry x="441.5" y="1524" width="68.5" height="46" as="geometry" />
        </mxCell>
        <mxCell id="IicrX0Bx84IDNbMDFtdl-115" value="关注类型可以是圈子，也可以是用户" style="text;html=1;strokeColor=none;fillColor=none;align=center;verticalAlign=middle;whiteSpace=wrap;rounded=0;" parent="1" vertex="1">
          <mxGeometry x="-1132.5" y="1610" width="245" height="30" as="geometry" />
        </mxCell>
        <mxCell id="IicrX0Bx84IDNbMDFtdl-116" value="&lt;span style=&quot;font-size: 12px&quot;&gt;用户id&lt;/span&gt;" style="ellipse;whiteSpace=wrap;html=1;fontSize=18;strokeColor=default;strokeWidth=2;" parent="1" vertex="1">
          <mxGeometry x="-131.25" y="1460" width="62.75" height="46" as="geometry" />
        </mxCell>
        <mxCell id="CTEZt65gRLzesn5DoD-w-2" value="&lt;span style=&quot;font-size: 12px&quot;&gt;被回复用户id&lt;/span&gt;" style="ellipse;whiteSpace=wrap;html=1;fontSize=18;strokeColor=default;strokeWidth=2;" parent="1" vertex="1">
          <mxGeometry x="-370" y="304" width="90" height="46" as="geometry" />
        </mxCell>
      </root>
    </mxGraphModel>
  </diagram>
  <diagram id="9g6MDBIw-_xr5V5LFCLO" name="第 2 页">
    <mxGraphModel dx="874" dy="468" grid="1" gridSize="10" guides="1" tooltips="1" connect="1" arrows="1" fold="1" page="1" pageScale="1" pageWidth="1169" pageHeight="827" math="0" shadow="0">
      <root>
        <mxCell id="0" />
        <mxCell id="1" parent="0" />
        <mxCell id="YdE7lXU7T2dH9XHsFJqD-14" value="" style="rounded=0;whiteSpace=wrap;html=1;" vertex="1" parent="1">
          <mxGeometry x="480" y="240" width="540" height="400" as="geometry" />
        </mxCell>
        <mxCell id="YdE7lXU7T2dH9XHsFJqD-15" value="" style="endArrow=none;html=1;rounded=0;entryX=1.003;entryY=0.097;entryDx=0;entryDy=0;entryPerimeter=0;" edge="1" parent="1" target="YdE7lXU7T2dH9XHsFJqD-14">
          <mxGeometry width="50" height="50" relative="1" as="geometry">
            <mxPoint x="480" y="279" as="sourcePoint" />
            <mxPoint x="940" y="400" as="targetPoint" />
          </mxGeometry>
        </mxCell>
        <mxCell id="YdE7lXU7T2dH9XHsFJqD-17" value="" style="endArrow=none;html=1;rounded=0;entryX=0.662;entryY=0.005;entryDx=0;entryDy=0;entryPerimeter=0;exitX=0.667;exitY=1.003;exitDx=0;exitDy=0;exitPerimeter=0;" edge="1" parent="1" source="YdE7lXU7T2dH9XHsFJqD-14" target="YdE7lXU7T2dH9XHsFJqD-14">
          <mxGeometry width="50" height="50" relative="1" as="geometry">
            <mxPoint x="840" y="560" as="sourcePoint" />
            <mxPoint x="800" y="240" as="targetPoint" />
          </mxGeometry>
        </mxCell>
        <mxCell id="YdE7lXU7T2dH9XHsFJqD-18" value="" style="endArrow=none;html=1;rounded=0;entryX=1.001;entryY=0.122;entryDx=0;entryDy=0;entryPerimeter=0;" edge="1" parent="1">
          <mxGeometry width="50" height="50" relative="1" as="geometry">
            <mxPoint x="479.46" y="320" as="sourcePoint" />
            <mxPoint x="1020" y="320.03999999999985" as="targetPoint" />
          </mxGeometry>
        </mxCell>
        <mxCell id="YdE7lXU7T2dH9XHsFJqD-19" value="" style="endArrow=none;html=1;rounded=0;entryX=1.001;entryY=0.122;entryDx=0;entryDy=0;entryPerimeter=0;" edge="1" parent="1">
          <mxGeometry width="50" height="50" relative="1" as="geometry">
            <mxPoint x="479.46" y="360" as="sourcePoint" />
            <mxPoint x="1020" y="360.03999999999985" as="targetPoint" />
          </mxGeometry>
        </mxCell>
        <mxCell id="YdE7lXU7T2dH9XHsFJqD-20" value="" style="endArrow=none;html=1;rounded=0;entryX=1.001;entryY=0.122;entryDx=0;entryDy=0;entryPerimeter=0;" edge="1" parent="1">
          <mxGeometry width="50" height="50" relative="1" as="geometry">
            <mxPoint x="479.46" y="399.65999999999997" as="sourcePoint" />
            <mxPoint x="1020" y="399.6999999999998" as="targetPoint" />
          </mxGeometry>
        </mxCell>
        <mxCell id="YdE7lXU7T2dH9XHsFJqD-21" value="" style="endArrow=none;html=1;rounded=0;entryX=1.001;entryY=0.122;entryDx=0;entryDy=0;entryPerimeter=0;" edge="1" parent="1">
          <mxGeometry width="50" height="50" relative="1" as="geometry">
            <mxPoint x="479.46" y="440" as="sourcePoint" />
            <mxPoint x="1020" y="440.03999999999985" as="targetPoint" />
          </mxGeometry>
        </mxCell>
        <mxCell id="YdE7lXU7T2dH9XHsFJqD-22" value="" style="endArrow=none;html=1;rounded=0;entryX=1.001;entryY=0.122;entryDx=0;entryDy=0;entryPerimeter=0;" edge="1" parent="1">
          <mxGeometry width="50" height="50" relative="1" as="geometry">
            <mxPoint x="480" y="480" as="sourcePoint" />
            <mxPoint x="1020.54" y="480.03999999999985" as="targetPoint" />
          </mxGeometry>
        </mxCell>
        <mxCell id="YdE7lXU7T2dH9XHsFJqD-23" value="" style="endArrow=none;html=1;rounded=0;entryX=1.001;entryY=0.122;entryDx=0;entryDy=0;entryPerimeter=0;" edge="1" parent="1">
          <mxGeometry width="50" height="50" relative="1" as="geometry">
            <mxPoint x="479.73" y="520" as="sourcePoint" />
            <mxPoint x="1020.27" y="520.0399999999998" as="targetPoint" />
          </mxGeometry>
        </mxCell>
        <mxCell id="YdE7lXU7T2dH9XHsFJqD-24" value="MOV RD,RS" style="text;html=1;strokeColor=none;fillColor=none;align=center;verticalAlign=middle;whiteSpace=wrap;rounded=0;" vertex="1" parent="1">
          <mxGeometry x="487" y="245" width="103" height="30" as="geometry" />
        </mxCell>
        <mxCell id="YdE7lXU7T2dH9XHsFJqD-25" value="" style="endArrow=none;html=1;rounded=0;entryX=0.221;entryY=0.003;entryDx=0;entryDy=0;entryPerimeter=0;exitX=0.22;exitY=1.005;exitDx=0;exitDy=0;exitPerimeter=0;" edge="1" parent="1" source="YdE7lXU7T2dH9XHsFJqD-14" target="YdE7lXU7T2dH9XHsFJqD-14">
          <mxGeometry width="50" height="50" relative="1" as="geometry">
            <mxPoint x="730" y="360" as="sourcePoint" />
            <mxPoint x="780" y="310" as="targetPoint" />
          </mxGeometry>
        </mxCell>
        <mxCell id="YdE7lXU7T2dH9XHsFJqD-26" value="0100" style="rounded=0;whiteSpace=wrap;html=1;" vertex="1" parent="1">
          <mxGeometry x="610" y="245" width="60" height="30" as="geometry" />
        </mxCell>
        <mxCell id="YdE7lXU7T2dH9XHsFJqD-27" value="RS" style="rounded=0;whiteSpace=wrap;html=1;" vertex="1" parent="1">
          <mxGeometry x="670" y="245" width="60" height="30" as="geometry" />
        </mxCell>
        <mxCell id="YdE7lXU7T2dH9XHsFJqD-28" value="RD" style="rounded=0;whiteSpace=wrap;html=1;" vertex="1" parent="1">
          <mxGeometry x="730" y="245" width="60" height="30" as="geometry" />
        </mxCell>
        <mxCell id="YdE7lXU7T2dH9XHsFJqD-29" value="RS-&amp;gt;RD" style="text;html=1;strokeColor=none;fillColor=none;align=center;verticalAlign=middle;whiteSpace=wrap;rounded=0;" vertex="1" parent="1">
          <mxGeometry x="890" y="245" width="60" height="30" as="geometry" />
        </mxCell>
        <mxCell id="YdE7lXU7T2dH9XHsFJqD-30" value="INC RD" style="text;html=1;strokeColor=none;fillColor=none;align=center;verticalAlign=middle;whiteSpace=wrap;rounded=0;" vertex="1" parent="1">
          <mxGeometry x="487" y="285" width="103" height="30" as="geometry" />
        </mxCell>
        <mxCell id="YdE7lXU7T2dH9XHsFJqD-31" value="0111" style="rounded=0;whiteSpace=wrap;html=1;" vertex="1" parent="1">
          <mxGeometry x="610" y="285" width="60" height="30" as="geometry" />
        </mxCell>
        <mxCell id="YdE7lXU7T2dH9XHsFJqD-32" value="**" style="rounded=0;whiteSpace=wrap;html=1;" vertex="1" parent="1">
          <mxGeometry x="670" y="285" width="60" height="30" as="geometry" />
        </mxCell>
        <mxCell id="YdE7lXU7T2dH9XHsFJqD-33" value="RD" style="rounded=0;whiteSpace=wrap;html=1;" vertex="1" parent="1">
          <mxGeometry x="730" y="285" width="60" height="30" as="geometry" />
        </mxCell>
        <mxCell id="YdE7lXU7T2dH9XHsFJqD-34" value="1011" style="rounded=0;whiteSpace=wrap;html=1;" vertex="1" parent="1">
          <mxGeometry x="610" y="325" width="60" height="30" as="geometry" />
        </mxCell>
        <mxCell id="YdE7lXU7T2dH9XHsFJqD-35" value="**" style="rounded=0;whiteSpace=wrap;html=1;" vertex="1" parent="1">
          <mxGeometry x="670" y="325" width="60" height="30" as="geometry" />
        </mxCell>
        <mxCell id="YdE7lXU7T2dH9XHsFJqD-36" value="RD" style="rounded=0;whiteSpace=wrap;html=1;" vertex="1" parent="1">
          <mxGeometry x="730" y="325" width="60" height="30" as="geometry" />
        </mxCell>
        <mxCell id="YdE7lXU7T2dH9XHsFJqD-37" value="0001" style="rounded=0;whiteSpace=wrap;html=1;" vertex="1" parent="1">
          <mxGeometry x="610" y="365" width="60" height="30" as="geometry" />
        </mxCell>
        <mxCell id="YdE7lXU7T2dH9XHsFJqD-38" value="RS" style="rounded=0;whiteSpace=wrap;html=1;" vertex="1" parent="1">
          <mxGeometry x="670" y="365" width="60" height="30" as="geometry" />
        </mxCell>
        <mxCell id="YdE7lXU7T2dH9XHsFJqD-39" value="RD" style="rounded=0;whiteSpace=wrap;html=1;" vertex="1" parent="1">
          <mxGeometry x="730" y="365" width="60" height="30" as="geometry" />
        </mxCell>
        <mxCell id="YdE7lXU7T2dH9XHsFJqD-40" value="0110" style="rounded=0;whiteSpace=wrap;html=1;" vertex="1" parent="1">
          <mxGeometry x="610" y="405" width="60" height="30" as="geometry" />
        </mxCell>
        <mxCell id="YdE7lXU7T2dH9XHsFJqD-41" value="**" style="rounded=0;whiteSpace=wrap;html=1;" vertex="1" parent="1">
          <mxGeometry x="670" y="405" width="60" height="30" as="geometry" />
        </mxCell>
        <mxCell id="YdE7lXU7T2dH9XHsFJqD-42" value="RD" style="rounded=0;whiteSpace=wrap;html=1;" vertex="1" parent="1">
          <mxGeometry x="730" y="405" width="60" height="30" as="geometry" />
        </mxCell>
        <mxCell id="YdE7lXU7T2dH9XHsFJqD-43" value="1110" style="rounded=0;whiteSpace=wrap;html=1;" vertex="1" parent="1">
          <mxGeometry x="610" y="445" width="60" height="30" as="geometry" />
        </mxCell>
        <mxCell id="YdE7lXU7T2dH9XHsFJqD-44" value="M" style="rounded=0;whiteSpace=wrap;html=1;" vertex="1" parent="1">
          <mxGeometry x="670" y="445" width="60" height="30" as="geometry" />
        </mxCell>
        <mxCell id="YdE7lXU7T2dH9XHsFJqD-45" value="**" style="rounded=0;whiteSpace=wrap;html=1;" vertex="1" parent="1">
          <mxGeometry x="730" y="445" width="60" height="30" as="geometry" />
        </mxCell>
        <mxCell id="YdE7lXU7T2dH9XHsFJqD-46" value="1111" style="rounded=0;whiteSpace=wrap;html=1;" vertex="1" parent="1">
          <mxGeometry x="610" y="485" width="60" height="30" as="geometry" />
        </mxCell>
        <mxCell id="YdE7lXU7T2dH9XHsFJqD-47" value="M" style="rounded=0;whiteSpace=wrap;html=1;" vertex="1" parent="1">
          <mxGeometry x="670" y="485" width="60" height="30" as="geometry" />
        </mxCell>
        <mxCell id="YdE7lXU7T2dH9XHsFJqD-48" value="**" style="rounded=0;whiteSpace=wrap;html=1;" vertex="1" parent="1">
          <mxGeometry x="730" y="485" width="60" height="30" as="geometry" />
        </mxCell>
        <mxCell id="YdE7lXU7T2dH9XHsFJqD-49" value="0011" style="rounded=0;whiteSpace=wrap;html=1;" vertex="1" parent="1">
          <mxGeometry x="610" y="525" width="60" height="30" as="geometry" />
        </mxCell>
        <mxCell id="YdE7lXU7T2dH9XHsFJqD-50" value="RS" style="rounded=0;whiteSpace=wrap;html=1;" vertex="1" parent="1">
          <mxGeometry x="670" y="525" width="60" height="30" as="geometry" />
        </mxCell>
        <mxCell id="YdE7lXU7T2dH9XHsFJqD-51" value="**" style="rounded=0;whiteSpace=wrap;html=1;" vertex="1" parent="1">
          <mxGeometry x="730" y="525" width="60" height="30" as="geometry" />
        </mxCell>
        <mxCell id="YdE7lXU7T2dH9XHsFJqD-52" value="RD+1 -&amp;gt; RD" style="text;html=1;strokeColor=none;fillColor=none;align=center;verticalAlign=middle;whiteSpace=wrap;rounded=0;" vertex="1" parent="1">
          <mxGeometry x="890" y="285" width="70" height="30" as="geometry" />
        </mxCell>
        <mxCell id="YdE7lXU7T2dH9XHsFJqD-53" value="RD-1 -&amp;gt; RD" style="text;html=1;strokeColor=none;fillColor=none;align=center;verticalAlign=middle;whiteSpace=wrap;rounded=0;" vertex="1" parent="1">
          <mxGeometry x="890" y="325" width="70" height="30" as="geometry" />
        </mxCell>
        <mxCell id="YdE7lXU7T2dH9XHsFJqD-54" value="RS-RD" style="text;html=1;strokeColor=none;fillColor=none;align=center;verticalAlign=middle;whiteSpace=wrap;rounded=0;" vertex="1" parent="1">
          <mxGeometry x="890" y="365" width="60" height="30" as="geometry" />
        </mxCell>
        <mxCell id="YdE7lXU7T2dH9XHsFJqD-55" value="D -&amp;gt; RD" style="text;html=1;strokeColor=none;fillColor=none;align=center;verticalAlign=middle;whiteSpace=wrap;rounded=0;" vertex="1" parent="1">
          <mxGeometry x="890" y="405" width="60" height="30" as="geometry" />
        </mxCell>
        <mxCell id="YdE7lXU7T2dH9XHsFJqD-56" value="E -&amp;gt; PC" style="text;html=1;strokeColor=none;fillColor=none;align=center;verticalAlign=middle;whiteSpace=wrap;rounded=0;" vertex="1" parent="1">
          <mxGeometry x="890" y="445" width="60" height="30" as="geometry" />
        </mxCell>
        <mxCell id="YdE7lXU7T2dH9XHsFJqD-57" value="当FC=1或FZ=1时，E-&amp;gt;PC" style="text;html=1;strokeColor=none;fillColor=none;align=center;verticalAlign=middle;whiteSpace=wrap;rounded=0;" vertex="1" parent="1">
          <mxGeometry x="850" y="485" width="160" height="30" as="geometry" />
        </mxCell>
        <mxCell id="YdE7lXU7T2dH9XHsFJqD-58" value="RS-&amp;gt;[P]" style="text;html=1;strokeColor=none;fillColor=none;align=center;verticalAlign=middle;whiteSpace=wrap;rounded=0;" vertex="1" parent="1">
          <mxGeometry x="890" y="525" width="60" height="30" as="geometry" />
        </mxCell>
        <mxCell id="YdE7lXU7T2dH9XHsFJqD-59" value="&lt;u&gt;DEC RD&lt;/u&gt;" style="text;html=1;strokeColor=none;fillColor=none;align=center;verticalAlign=middle;whiteSpace=wrap;rounded=0;" vertex="1" parent="1">
          <mxGeometry x="487" y="325" width="103" height="30" as="geometry" />
        </mxCell>
        <mxCell id="YdE7lXU7T2dH9XHsFJqD-60" value="&lt;u&gt;CMP RS,RD&lt;/u&gt;" style="text;html=1;strokeColor=none;fillColor=none;align=center;verticalAlign=middle;whiteSpace=wrap;rounded=0;" vertex="1" parent="1">
          <mxGeometry x="487" y="365" width="103" height="30" as="geometry" />
        </mxCell>
        <mxCell id="YdE7lXU7T2dH9XHsFJqD-61" value="LDI RD,D" style="text;html=1;strokeColor=none;fillColor=none;align=center;verticalAlign=middle;whiteSpace=wrap;rounded=0;" vertex="1" parent="1">
          <mxGeometry x="487" y="405" width="103" height="30" as="geometry" />
        </mxCell>
        <mxCell id="YdE7lXU7T2dH9XHsFJqD-62" value="JMP N D" style="text;html=1;strokeColor=none;fillColor=none;align=center;verticalAlign=middle;whiteSpace=wrap;rounded=0;" vertex="1" parent="1">
          <mxGeometry x="487" y="445" width="103" height="30" as="geometry" />
        </mxCell>
        <mxCell id="YdE7lXU7T2dH9XHsFJqD-63" value="BZC M D" style="text;html=1;strokeColor=none;fillColor=none;align=center;verticalAlign=middle;whiteSpace=wrap;rounded=0;" vertex="1" parent="1">
          <mxGeometry x="487" y="485" width="103" height="30" as="geometry" />
        </mxCell>
        <mxCell id="YdE7lXU7T2dH9XHsFJqD-64" value="OUT P,RS" style="text;html=1;strokeColor=none;fillColor=none;align=center;verticalAlign=middle;whiteSpace=wrap;rounded=0;" vertex="1" parent="1">
          <mxGeometry x="487" y="525" width="103" height="30" as="geometry" />
        </mxCell>
        <mxCell id="YdE7lXU7T2dH9XHsFJqD-66" value="D" style="rounded=0;whiteSpace=wrap;html=1;" vertex="1" parent="1">
          <mxGeometry x="790" y="405" width="40" height="30" as="geometry" />
        </mxCell>
        <mxCell id="YdE7lXU7T2dH9XHsFJqD-68" value="D" style="rounded=0;whiteSpace=wrap;html=1;" vertex="1" parent="1">
          <mxGeometry x="790" y="445" width="40" height="30" as="geometry" />
        </mxCell>
        <mxCell id="YdE7lXU7T2dH9XHsFJqD-69" value="D" style="rounded=0;whiteSpace=wrap;html=1;" vertex="1" parent="1">
          <mxGeometry x="790" y="485" width="40" height="30" as="geometry" />
        </mxCell>
        <mxCell id="YdE7lXU7T2dH9XHsFJqD-70" value="P" style="rounded=0;whiteSpace=wrap;html=1;" vertex="1" parent="1">
          <mxGeometry x="790" y="525" width="40" height="30" as="geometry" />
        </mxCell>
        <mxCell id="YdE7lXU7T2dH9XHsFJqD-71" value="" style="endArrow=none;html=1;rounded=0;entryX=1.001;entryY=0.122;entryDx=0;entryDy=0;entryPerimeter=0;" edge="1" parent="1">
          <mxGeometry width="50" height="50" relative="1" as="geometry">
            <mxPoint x="479.46000000000004" y="560" as="sourcePoint" />
            <mxPoint x="1020" y="560.0399999999998" as="targetPoint" />
          </mxGeometry>
        </mxCell>
        <mxCell id="YdE7lXU7T2dH9XHsFJqD-72" value="" style="endArrow=none;html=1;rounded=0;entryX=1.001;entryY=0.122;entryDx=0;entryDy=0;entryPerimeter=0;" edge="1" parent="1">
          <mxGeometry width="50" height="50" relative="1" as="geometry">
            <mxPoint x="479.46000000000004" y="600" as="sourcePoint" />
            <mxPoint x="1020" y="600.0399999999998" as="targetPoint" />
          </mxGeometry>
        </mxCell>
        <mxCell id="YdE7lXU7T2dH9XHsFJqD-74" value="IN RD,P" style="text;html=1;strokeColor=none;fillColor=none;align=center;verticalAlign=middle;whiteSpace=wrap;rounded=0;" vertex="1" parent="1">
          <mxGeometry x="487" y="565" width="103" height="30" as="geometry" />
        </mxCell>
        <mxCell id="YdE7lXU7T2dH9XHsFJqD-75" value="0010" style="rounded=0;whiteSpace=wrap;html=1;" vertex="1" parent="1">
          <mxGeometry x="610" y="565" width="60" height="30" as="geometry" />
        </mxCell>
        <mxCell id="YdE7lXU7T2dH9XHsFJqD-76" value="**" style="rounded=0;whiteSpace=wrap;html=1;" vertex="1" parent="1">
          <mxGeometry x="670" y="565" width="60" height="30" as="geometry" />
        </mxCell>
        <mxCell id="YdE7lXU7T2dH9XHsFJqD-77" value="RD" style="rounded=0;whiteSpace=wrap;html=1;" vertex="1" parent="1">
          <mxGeometry x="730" y="565" width="60" height="30" as="geometry" />
        </mxCell>
        <mxCell id="YdE7lXU7T2dH9XHsFJqD-78" value="P" style="rounded=0;whiteSpace=wrap;html=1;" vertex="1" parent="1">
          <mxGeometry x="790" y="565" width="40" height="30" as="geometry" />
        </mxCell>
        <mxCell id="YdE7lXU7T2dH9XHsFJqD-79" value="[P] -&amp;gt; RD&amp;nbsp;" style="text;html=1;strokeColor=none;fillColor=none;align=center;verticalAlign=middle;whiteSpace=wrap;rounded=0;" vertex="1" parent="1">
          <mxGeometry x="890" y="565" width="60" height="30" as="geometry" />
        </mxCell>
        <mxCell id="YdE7lXU7T2dH9XHsFJqD-80" value="停机" style="text;html=1;strokeColor=none;fillColor=none;align=center;verticalAlign=middle;whiteSpace=wrap;rounded=0;" vertex="1" parent="1">
          <mxGeometry x="890" y="605" width="60" height="30" as="geometry" />
        </mxCell>
        <mxCell id="YdE7lXU7T2dH9XHsFJqD-81" value="HALT" style="text;html=1;strokeColor=none;fillColor=none;align=center;verticalAlign=middle;whiteSpace=wrap;rounded=0;" vertex="1" parent="1">
          <mxGeometry x="487" y="605" width="103" height="30" as="geometry" />
        </mxCell>
        <mxCell id="YdE7lXU7T2dH9XHsFJqD-82" value="0101" style="rounded=0;whiteSpace=wrap;html=1;" vertex="1" parent="1">
          <mxGeometry x="610" y="605" width="60" height="30" as="geometry" />
        </mxCell>
        <mxCell id="YdE7lXU7T2dH9XHsFJqD-83" value="**" style="rounded=0;whiteSpace=wrap;html=1;" vertex="1" parent="1">
          <mxGeometry x="670" y="605" width="60" height="30" as="geometry" />
        </mxCell>
        <mxCell id="YdE7lXU7T2dH9XHsFJqD-84" value="**" style="rounded=0;whiteSpace=wrap;html=1;" vertex="1" parent="1">
          <mxGeometry x="730" y="605" width="60" height="30" as="geometry" />
        </mxCell>
      </root>
    </mxGraphModel>
  </diagram>
  <diagram id="LQfhF8i3fC_iSxD5glOm" name="第 3 页">
    <mxGraphModel dx="1208" dy="647" grid="1" gridSize="10" guides="1" tooltips="1" connect="1" arrows="1" fold="1" page="1" pageScale="1" pageWidth="1169" pageHeight="827" math="0" shadow="0">
      <root>
        <mxCell id="0" />
        <mxCell id="1" parent="0" />
        <mxCell id="iUZXjhifLx2dYTJkMW0P-2" style="edgeStyle=orthogonalEdgeStyle;rounded=0;orthogonalLoop=1;jettySize=auto;html=1;fontSize=14;" edge="1" parent="1" source="iUZXjhifLx2dYTJkMW0P-1">
          <mxGeometry relative="1" as="geometry">
            <mxPoint x="505" y="150" as="targetPoint" />
          </mxGeometry>
        </mxCell>
        <mxCell id="iUZXjhifLx2dYTJkMW0P-1" value="&lt;font style=&quot;font-size: 14px&quot;&gt;NOP&lt;/font&gt;" style="rounded=0;whiteSpace=wrap;html=1;" vertex="1" parent="1">
          <mxGeometry x="460" y="80" width="90" height="40" as="geometry" />
        </mxCell>
        <mxCell id="iUZXjhifLx2dYTJkMW0P-5" value="" style="edgeStyle=orthogonalEdgeStyle;rounded=0;orthogonalLoop=1;jettySize=auto;html=1;fontSize=14;" edge="1" parent="1" source="iUZXjhifLx2dYTJkMW0P-3" target="iUZXjhifLx2dYTJkMW0P-4">
          <mxGeometry relative="1" as="geometry" />
        </mxCell>
        <mxCell id="iUZXjhifLx2dYTJkMW0P-3" value="&lt;font style=&quot;font-size: 14px&quot;&gt;PC-&amp;gt;AR&lt;br&gt;PC+1&lt;br&gt;&lt;/font&gt;" style="rounded=0;whiteSpace=wrap;html=1;" vertex="1" parent="1">
          <mxGeometry x="460" y="150" width="90" height="40" as="geometry" />
        </mxCell>
        <mxCell id="iUZXjhifLx2dYTJkMW0P-7" value="" style="edgeStyle=orthogonalEdgeStyle;rounded=0;orthogonalLoop=1;jettySize=auto;html=1;fontSize=14;" edge="1" parent="1" source="iUZXjhifLx2dYTJkMW0P-4" target="iUZXjhifLx2dYTJkMW0P-6">
          <mxGeometry relative="1" as="geometry" />
        </mxCell>
        <mxCell id="iUZXjhifLx2dYTJkMW0P-4" value="&lt;font style=&quot;font-size: 14px&quot;&gt;MEM-&amp;gt;R&lt;br&gt;&lt;/font&gt;" style="rounded=0;whiteSpace=wrap;html=1;" vertex="1" parent="1">
          <mxGeometry x="460" y="220" width="90" height="40" as="geometry" />
        </mxCell>
        <mxCell id="iUZXjhifLx2dYTJkMW0P-9" style="edgeStyle=orthogonalEdgeStyle;rounded=0;orthogonalLoop=1;jettySize=auto;html=1;fontSize=14;" edge="1" parent="1" source="iUZXjhifLx2dYTJkMW0P-6">
          <mxGeometry relative="1" as="geometry">
            <mxPoint x="505" y="360" as="targetPoint" />
          </mxGeometry>
        </mxCell>
        <mxCell id="iUZXjhifLx2dYTJkMW0P-6" value="P&amp;lt;1&amp;gt;" style="rhombus;whiteSpace=wrap;html=1;rounded=0;" vertex="1" parent="1">
          <mxGeometry x="465" y="290" width="80" height="40" as="geometry" />
        </mxCell>
        <mxCell id="iUZXjhifLx2dYTJkMW0P-10" value="" style="endArrow=none;html=1;rounded=0;fontSize=14;" edge="1" parent="1">
          <mxGeometry width="50" height="50" relative="1" as="geometry">
            <mxPoint x="360" y="360" as="sourcePoint" />
            <mxPoint x="640" y="360" as="targetPoint" />
          </mxGeometry>
        </mxCell>
        <mxCell id="iUZXjhifLx2dYTJkMW0P-11" value="" style="endArrow=classic;html=1;rounded=0;fontSize=14;" edge="1" parent="1">
          <mxGeometry width="50" height="50" relative="1" as="geometry">
            <mxPoint x="360" y="360" as="sourcePoint" />
            <mxPoint x="360" y="390" as="targetPoint" />
          </mxGeometry>
        </mxCell>
        <mxCell id="iUZXjhifLx2dYTJkMW0P-12" value="" style="endArrow=classic;html=1;rounded=0;fontSize=14;" edge="1" parent="1">
          <mxGeometry width="50" height="50" relative="1" as="geometry">
            <mxPoint x="640" y="360" as="sourcePoint" />
            <mxPoint x="640" y="390" as="targetPoint" />
          </mxGeometry>
        </mxCell>
        <mxCell id="iUZXjhifLx2dYTJkMW0P-16" style="edgeStyle=orthogonalEdgeStyle;rounded=0;orthogonalLoop=1;jettySize=auto;html=1;fontSize=14;entryX=0.5;entryY=0;entryDx=0;entryDy=0;" edge="1" parent="1" target="iUZXjhifLx2dYTJkMW0P-17">
          <mxGeometry relative="1" as="geometry">
            <mxPoint x="361" y="460" as="targetPoint" />
            <mxPoint x="360" y="434" as="sourcePoint" />
          </mxGeometry>
        </mxCell>
        <mxCell id="iUZXjhifLx2dYTJkMW0P-13" value="&lt;font style=&quot;font-size: 14px&quot;&gt;RD-&amp;gt;A&lt;/font&gt;" style="rounded=0;whiteSpace=wrap;html=1;" vertex="1" parent="1">
          <mxGeometry x="316" y="394" width="90" height="40" as="geometry" />
        </mxCell>
        <mxCell id="iUZXjhifLx2dYTJkMW0P-17" value="&lt;font style=&quot;font-size: 14px&quot;&gt;A-1-&amp;gt;RD&lt;/font&gt;" style="rounded=0;whiteSpace=wrap;html=1;" vertex="1" parent="1">
          <mxGeometry x="316" y="470" width="90" height="40" as="geometry" />
        </mxCell>
        <mxCell id="iUZXjhifLx2dYTJkMW0P-18" value="DEC" style="text;html=1;strokeColor=none;fillColor=none;align=center;verticalAlign=middle;whiteSpace=wrap;rounded=0;fontSize=14;" vertex="1" parent="1">
          <mxGeometry x="331" y="330" width="60" height="30" as="geometry" />
        </mxCell>
        <mxCell id="iUZXjhifLx2dYTJkMW0P-20" value="CMP" style="text;html=1;strokeColor=none;fillColor=none;align=center;verticalAlign=middle;whiteSpace=wrap;rounded=0;fontSize=14;" vertex="1" parent="1">
          <mxGeometry x="610" y="330" width="60" height="30" as="geometry" />
        </mxCell>
        <mxCell id="iUZXjhifLx2dYTJkMW0P-21" value="3B" style="text;html=1;strokeColor=none;fillColor=none;align=center;verticalAlign=middle;whiteSpace=wrap;rounded=0;fontSize=14;" vertex="1" parent="1">
          <mxGeometry x="360" y="364" width="60" height="30" as="geometry" />
        </mxCell>
        <mxCell id="iUZXjhifLx2dYTJkMW0P-22" value="19" style="text;html=1;strokeColor=none;fillColor=none;align=center;verticalAlign=middle;whiteSpace=wrap;rounded=0;fontSize=14;" vertex="1" parent="1">
          <mxGeometry x="360" y="440" width="60" height="30" as="geometry" />
        </mxCell>
        <mxCell id="iUZXjhifLx2dYTJkMW0P-30" style="edgeStyle=orthogonalEdgeStyle;rounded=0;orthogonalLoop=1;jettySize=auto;html=1;entryX=0.5;entryY=0;entryDx=0;entryDy=0;fontSize=14;" edge="1" parent="1" source="iUZXjhifLx2dYTJkMW0P-27">
          <mxGeometry relative="1" as="geometry">
            <mxPoint x="641" y="470" as="targetPoint" />
          </mxGeometry>
        </mxCell>
        <mxCell id="iUZXjhifLx2dYTJkMW0P-27" value="&lt;font style=&quot;font-size: 14px&quot;&gt;RD-&amp;gt;A&lt;/font&gt;" style="rounded=0;whiteSpace=wrap;html=1;" vertex="1" parent="1">
          <mxGeometry x="596" y="394" width="90" height="40" as="geometry" />
        </mxCell>
        <mxCell id="iUZXjhifLx2dYTJkMW0P-34" style="edgeStyle=orthogonalEdgeStyle;rounded=0;orthogonalLoop=1;jettySize=auto;html=1;fontSize=14;entryX=0.489;entryY=0;entryDx=0;entryDy=0;entryPerimeter=0;" edge="1" parent="1" source="iUZXjhifLx2dYTJkMW0P-28" target="iUZXjhifLx2dYTJkMW0P-35">
          <mxGeometry relative="1" as="geometry">
            <mxPoint x="640" y="540" as="targetPoint" />
          </mxGeometry>
        </mxCell>
        <mxCell id="iUZXjhifLx2dYTJkMW0P-28" value="&lt;font style=&quot;font-size: 14px&quot;&gt;RS-&amp;gt;B&lt;/font&gt;" style="rounded=0;whiteSpace=wrap;html=1;" vertex="1" parent="1">
          <mxGeometry x="595" y="470" width="90" height="40" as="geometry" />
        </mxCell>
        <mxCell id="iUZXjhifLx2dYTJkMW0P-29" value="06" style="text;html=1;strokeColor=none;fillColor=none;align=center;verticalAlign=middle;whiteSpace=wrap;rounded=0;fontSize=14;" vertex="1" parent="1">
          <mxGeometry x="640" y="440" width="60" height="30" as="geometry" />
        </mxCell>
        <mxCell id="iUZXjhifLx2dYTJkMW0P-33" value="31" style="text;html=1;strokeColor=none;fillColor=none;align=center;verticalAlign=middle;whiteSpace=wrap;rounded=0;fontSize=14;" vertex="1" parent="1">
          <mxGeometry x="640" y="364" width="60" height="30" as="geometry" />
        </mxCell>
        <mxCell id="iUZXjhifLx2dYTJkMW0P-35" value="&lt;font style=&quot;font-size: 14px&quot;&gt;A-B&lt;/font&gt;" style="rounded=0;whiteSpace=wrap;html=1;" vertex="1" parent="1">
          <mxGeometry x="596" y="550" width="90" height="40" as="geometry" />
        </mxCell>
        <mxCell id="iUZXjhifLx2dYTJkMW0P-37" value="07" style="text;html=1;strokeColor=none;fillColor=none;align=center;verticalAlign=middle;whiteSpace=wrap;rounded=0;fontSize=14;" vertex="1" parent="1">
          <mxGeometry x="640" y="520" width="60" height="30" as="geometry" />
        </mxCell>
        <mxCell id="iUZXjhifLx2dYTJkMW0P-38" value="00" style="text;html=1;strokeColor=none;fillColor=none;align=center;verticalAlign=middle;whiteSpace=wrap;rounded=0;fontSize=14;" vertex="1" parent="1">
          <mxGeometry x="500" y="50" width="60" height="30" as="geometry" />
        </mxCell>
        <mxCell id="iUZXjhifLx2dYTJkMW0P-39" value="01" style="text;html=1;strokeColor=none;fillColor=none;align=center;verticalAlign=middle;whiteSpace=wrap;rounded=0;fontSize=14;" vertex="1" parent="1">
          <mxGeometry x="500" y="120" width="60" height="30" as="geometry" />
        </mxCell>
        <mxCell id="iUZXjhifLx2dYTJkMW0P-40" value="03&lt;span style=&quot;color: rgba(0 , 0 , 0 , 0) ; font-family: monospace ; font-size: 0px&quot;&gt;%3CmxGraphModel%3E%3Croot%3E%3CmxCell%20id%3D%220%22%2F%3E%3CmxCell%20id%3D%221%22%20parent%3D%220%22%2F%3E%3CmxCell%20id%3D%222%22%20value%3D%2231%22%20style%3D%22text%3Bhtml%3D1%3BstrokeColor%3Dnone%3BfillColor%3Dnone%3Balign%3Dcenter%3BverticalAlign%3Dmiddle%3BwhiteSpace%3Dwrap%3Brounded%3D0%3BfontSize%3D14%3B%22%20vertex%3D%221%22%20parent%3D%221%22%3E%3CmxGeometry%20x%3D%22640%22%20y%3D%22364%22%20width%3D%2260%22%20height%3D%2230%22%20as%3D%22geometry%22%2F%3E%3C%2FmxCell%3E%3C%2Froot%3E%3C%2FmxGraphModel%3E&lt;/span&gt;" style="text;html=1;strokeColor=none;fillColor=none;align=center;verticalAlign=middle;whiteSpace=wrap;rounded=0;fontSize=14;" vertex="1" parent="1">
          <mxGeometry x="500" y="190" width="60" height="30" as="geometry" />
        </mxCell>
        <mxCell id="iUZXjhifLx2dYTJkMW0P-41" value="30" style="text;html=1;strokeColor=none;fillColor=none;align=center;verticalAlign=middle;whiteSpace=wrap;rounded=0;fontSize=14;" vertex="1" parent="1">
          <mxGeometry x="500" y="260" width="60" height="30" as="geometry" />
        </mxCell>
      </root>
    </mxGraphModel>
  </diagram>
  <diagram id="_kPvIZ7yMq4MfwfF63wt" name="第 4 页">
    <mxGraphModel dx="1023" dy="482" grid="1" gridSize="10" guides="1" tooltips="1" connect="1" arrows="1" fold="1" page="1" pageScale="1" pageWidth="1169" pageHeight="827" math="0" shadow="0">
      <root>
        <mxCell id="0" />
        <mxCell id="1" parent="0" />
        <mxCell id="1NdS147mNuXjR-kUHu2r-1" value="" style="rounded=0;whiteSpace=wrap;html=1;fontSize=14;" vertex="1" parent="1">
          <mxGeometry x="40" y="200" width="600" height="200" as="geometry" />
        </mxCell>
        <mxCell id="vAoYJalwMkwR0m5WWw8B-1" value="" style="endArrow=none;html=1;rounded=0;fontSize=14;exitX=0.001;exitY=0.202;exitDx=0;exitDy=0;exitPerimeter=0;entryX=1.001;entryY=0.194;entryDx=0;entryDy=0;entryPerimeter=0;" edge="1" parent="1" source="1NdS147mNuXjR-kUHu2r-1" target="1NdS147mNuXjR-kUHu2r-1">
          <mxGeometry width="50" height="50" relative="1" as="geometry">
            <mxPoint x="560" y="310" as="sourcePoint" />
            <mxPoint x="610" y="260" as="targetPoint" />
          </mxGeometry>
        </mxCell>
        <mxCell id="vAoYJalwMkwR0m5WWw8B-2" value="" style="endArrow=none;html=1;rounded=0;fontSize=14;exitX=0.001;exitY=0.202;exitDx=0;exitDy=0;exitPerimeter=0;" edge="1" parent="1">
          <mxGeometry width="50" height="50" relative="1" as="geometry">
            <mxPoint x="39.99999999999999" y="281.59999999999997" as="sourcePoint" />
            <mxPoint x="640" y="280" as="targetPoint" />
          </mxGeometry>
        </mxCell>
        <mxCell id="vAoYJalwMkwR0m5WWw8B-3" value="" style="endArrow=none;html=1;rounded=0;fontSize=14;exitX=0.001;exitY=0.202;exitDx=0;exitDy=0;exitPerimeter=0;" edge="1" parent="1">
          <mxGeometry width="50" height="50" relative="1" as="geometry">
            <mxPoint x="39.999999999999986" y="321.59999999999997" as="sourcePoint" />
            <mxPoint x="640" y="320" as="targetPoint" />
          </mxGeometry>
        </mxCell>
        <mxCell id="vAoYJalwMkwR0m5WWw8B-4" value="" style="endArrow=none;html=1;rounded=0;fontSize=14;exitX=0.001;exitY=0.202;exitDx=0;exitDy=0;exitPerimeter=0;" edge="1" parent="1">
          <mxGeometry width="50" height="50" relative="1" as="geometry">
            <mxPoint x="39.999999999999986" y="361.59999999999997" as="sourcePoint" />
            <mxPoint x="640" y="360" as="targetPoint" />
          </mxGeometry>
        </mxCell>
        <mxCell id="vAoYJalwMkwR0m5WWw8B-5" value="" style="endArrow=none;html=1;rounded=0;fontSize=14;exitX=0.063;exitY=1.002;exitDx=0;exitDy=0;exitPerimeter=0;" edge="1" parent="1" source="1NdS147mNuXjR-kUHu2r-1">
          <mxGeometry width="50" height="50" relative="1" as="geometry">
            <mxPoint x="560" y="310" as="sourcePoint" />
            <mxPoint x="78" y="160" as="targetPoint" />
          </mxGeometry>
        </mxCell>
        <mxCell id="vAoYJalwMkwR0m5WWw8B-6" value="" style="endArrow=none;html=1;rounded=0;fontSize=14;exitX=0.04;exitY=1;exitDx=0;exitDy=0;exitPerimeter=0;" edge="1" parent="1">
          <mxGeometry width="50" height="50" relative="1" as="geometry">
            <mxPoint x="160.00000000000009" y="399.6" as="sourcePoint" />
            <mxPoint x="161" y="160" as="targetPoint" />
          </mxGeometry>
        </mxCell>
        <mxCell id="vAoYJalwMkwR0m5WWw8B-7" value="" style="endArrow=none;html=1;rounded=0;fontSize=14;exitX=0.04;exitY=1;exitDx=0;exitDy=0;exitPerimeter=0;" edge="1" parent="1">
          <mxGeometry width="50" height="50" relative="1" as="geometry">
            <mxPoint x="240.00000000000009" y="399.6" as="sourcePoint" />
            <mxPoint x="240" y="160" as="targetPoint" />
          </mxGeometry>
        </mxCell>
        <mxCell id="vAoYJalwMkwR0m5WWw8B-8" value="" style="endArrow=none;html=1;rounded=0;fontSize=14;exitX=0.04;exitY=1;exitDx=0;exitDy=0;exitPerimeter=0;" edge="1" parent="1">
          <mxGeometry width="50" height="50" relative="1" as="geometry">
            <mxPoint x="320.0000000000001" y="400" as="sourcePoint" />
            <mxPoint x="321" y="160" as="targetPoint" />
          </mxGeometry>
        </mxCell>
        <mxCell id="vAoYJalwMkwR0m5WWw8B-9" value="" style="endArrow=none;html=1;rounded=0;fontSize=14;exitX=0.04;exitY=1;exitDx=0;exitDy=0;exitPerimeter=0;" edge="1" parent="1">
          <mxGeometry width="50" height="50" relative="1" as="geometry">
            <mxPoint x="400.0000000000001" y="399.6" as="sourcePoint" />
            <mxPoint x="400" y="160" as="targetPoint" />
          </mxGeometry>
        </mxCell>
        <mxCell id="vAoYJalwMkwR0m5WWw8B-10" value="" style="endArrow=none;html=1;rounded=0;fontSize=14;exitX=0.04;exitY=1;exitDx=0;exitDy=0;exitPerimeter=0;" edge="1" parent="1">
          <mxGeometry width="50" height="50" relative="1" as="geometry">
            <mxPoint x="480.0000000000001" y="399.6" as="sourcePoint" />
            <mxPoint x="480" y="160" as="targetPoint" />
          </mxGeometry>
        </mxCell>
        <mxCell id="vAoYJalwMkwR0m5WWw8B-11" value="" style="endArrow=none;html=1;rounded=0;fontSize=14;exitX=0.04;exitY=1;exitDx=0;exitDy=0;exitPerimeter=0;" edge="1" parent="1">
          <mxGeometry width="50" height="50" relative="1" as="geometry">
            <mxPoint x="560.0000000000001" y="400" as="sourcePoint" />
            <mxPoint x="560" y="160" as="targetPoint" />
          </mxGeometry>
        </mxCell>
        <mxCell id="vAoYJalwMkwR0m5WWw8B-13" value="" style="endArrow=none;html=1;rounded=0;fontSize=14;exitX=1;exitY=0;exitDx=0;exitDy=0;" edge="1" parent="1" source="1NdS147mNuXjR-kUHu2r-1">
          <mxGeometry width="50" height="50" relative="1" as="geometry">
            <mxPoint x="560" y="310" as="sourcePoint" />
            <mxPoint x="640" y="160" as="targetPoint" />
          </mxGeometry>
        </mxCell>
        <mxCell id="vAoYJalwMkwR0m5WWw8B-14" value="" style="endArrow=none;html=1;rounded=0;fontSize=14;" edge="1" parent="1">
          <mxGeometry width="50" height="50" relative="1" as="geometry">
            <mxPoint x="40" y="160" as="sourcePoint" />
            <mxPoint x="640" y="160" as="targetPoint" />
          </mxGeometry>
        </mxCell>
        <mxCell id="vAoYJalwMkwR0m5WWw8B-15" value="" style="endArrow=none;html=1;rounded=0;fontSize=14;exitX=1;exitY=0;exitDx=0;exitDy=0;" edge="1" parent="1">
          <mxGeometry width="50" height="50" relative="1" as="geometry">
            <mxPoint x="40" y="200" as="sourcePoint" />
            <mxPoint x="40" y="160" as="targetPoint" />
          </mxGeometry>
        </mxCell>
        <mxCell id="vAoYJalwMkwR0m5WWw8B-16" value="地址" style="text;html=1;strokeColor=none;fillColor=none;align=center;verticalAlign=middle;whiteSpace=wrap;rounded=0;fontSize=14;" vertex="1" parent="1">
          <mxGeometry x="30" y="170" width="60" height="30" as="geometry" />
        </mxCell>
        <mxCell id="vAoYJalwMkwR0m5WWw8B-17" value="十六进制格式" style="text;html=1;strokeColor=none;fillColor=none;align=center;verticalAlign=middle;whiteSpace=wrap;rounded=0;fontSize=14;" vertex="1" parent="1">
          <mxGeometry x="80" y="170" width="70" height="30" as="geometry" />
        </mxCell>
        <mxCell id="vAoYJalwMkwR0m5WWw8B-18" value="高五位" style="text;html=1;strokeColor=none;fillColor=none;align=center;verticalAlign=middle;whiteSpace=wrap;rounded=0;fontSize=14;" vertex="1" parent="1">
          <mxGeometry x="170" y="170" width="60" height="30" as="geometry" />
        </mxCell>
        <mxCell id="vAoYJalwMkwR0m5WWw8B-19" value="S3~S0" style="text;html=1;strokeColor=none;fillColor=none;align=center;verticalAlign=middle;whiteSpace=wrap;rounded=0;fontSize=14;" vertex="1" parent="1">
          <mxGeometry x="250" y="170" width="60" height="30" as="geometry" />
        </mxCell>
        <mxCell id="vAoYJalwMkwR0m5WWw8B-20" value="A字段" style="text;html=1;strokeColor=none;fillColor=none;align=center;verticalAlign=middle;whiteSpace=wrap;rounded=0;fontSize=14;" vertex="1" parent="1">
          <mxGeometry x="330" y="170" width="60" height="30" as="geometry" />
        </mxCell>
        <mxCell id="vAoYJalwMkwR0m5WWw8B-21" value="B字段" style="text;html=1;strokeColor=none;fillColor=none;align=center;verticalAlign=middle;whiteSpace=wrap;rounded=0;fontSize=14;" vertex="1" parent="1">
          <mxGeometry x="410" y="170" width="60" height="30" as="geometry" />
        </mxCell>
        <mxCell id="vAoYJalwMkwR0m5WWw8B-22" value="C字段" style="text;html=1;strokeColor=none;fillColor=none;align=center;verticalAlign=middle;whiteSpace=wrap;rounded=0;fontSize=14;" vertex="1" parent="1">
          <mxGeometry x="490" y="170" width="60" height="30" as="geometry" />
        </mxCell>
        <mxCell id="vAoYJalwMkwR0m5WWw8B-23" value="UA5~UA0" style="text;html=1;strokeColor=none;fillColor=none;align=center;verticalAlign=middle;whiteSpace=wrap;rounded=0;fontSize=14;" vertex="1" parent="1">
          <mxGeometry x="570" y="170" width="60" height="30" as="geometry" />
        </mxCell>
        <mxCell id="DxmjoMygsBrn_RYdiTDZ-1" value="06" style="text;html=1;strokeColor=none;fillColor=none;align=center;verticalAlign=middle;whiteSpace=wrap;rounded=0;fontSize=14;" vertex="1" parent="1">
          <mxGeometry x="30" y="210" width="60" height="30" as="geometry" />
        </mxCell>
        <mxCell id="DxmjoMygsBrn_RYdiTDZ-2" value="07" style="text;html=1;strokeColor=none;fillColor=none;align=center;verticalAlign=middle;whiteSpace=wrap;rounded=0;fontSize=14;" vertex="1" parent="1">
          <mxGeometry x="30" y="250" width="60" height="30" as="geometry" />
        </mxCell>
        <mxCell id="DxmjoMygsBrn_RYdiTDZ-3" value="19" style="text;html=1;strokeColor=none;fillColor=none;align=center;verticalAlign=middle;whiteSpace=wrap;rounded=0;fontSize=14;" vertex="1" parent="1">
          <mxGeometry x="30" y="286" width="60" height="33" as="geometry" />
        </mxCell>
        <mxCell id="DxmjoMygsBrn_RYdiTDZ-4" value="31" style="text;html=1;strokeColor=none;fillColor=none;align=center;verticalAlign=middle;whiteSpace=wrap;rounded=0;fontSize=14;" vertex="1" parent="1">
          <mxGeometry x="30" y="329" width="60" height="30" as="geometry" />
        </mxCell>
        <mxCell id="DxmjoMygsBrn_RYdiTDZ-5" value="3B" style="text;html=1;strokeColor=none;fillColor=none;align=center;verticalAlign=middle;whiteSpace=wrap;rounded=0;fontSize=14;" vertex="1" parent="1">
          <mxGeometry x="30" y="366" width="60" height="30" as="geometry" />
        </mxCell>
        <mxCell id="DxmjoMygsBrn_RYdiTDZ-6" value="00 24 07" style="text;html=1;strokeColor=none;fillColor=none;align=center;verticalAlign=middle;whiteSpace=wrap;rounded=0;fontSize=14;" vertex="1" parent="1">
          <mxGeometry x="80" y="210" width="80" height="30" as="geometry" />
        </mxCell>
        <mxCell id="DxmjoMygsBrn_RYdiTDZ-7" value="00000" style="text;html=1;strokeColor=none;fillColor=none;align=center;verticalAlign=middle;whiteSpace=wrap;rounded=0;fontSize=14;" vertex="1" parent="1">
          <mxGeometry x="160" y="210" width="80" height="30" as="geometry" />
        </mxCell>
        <mxCell id="DxmjoMygsBrn_RYdiTDZ-8" value="0000&lt;span style=&quot;color: rgba(0 , 0 , 0 , 0) ; font-family: monospace ; font-size: 0px&quot;&gt;%3CmxGraphModel%3E%3Croot%3E%3CmxCell%20id%3D%220%22%2F%3E%3CmxCell%20id%3D%221%22%20parent%3D%220%22%2F%3E%3CmxCell%20id%3D%222%22%20value%3D%2200%2024%2007%22%20style%3D%22text%3Bhtml%3D1%3BstrokeColor%3Dnone%3BfillColor%3Dnone%3Balign%3Dcenter%3BverticalAlign%3Dmiddle%3BwhiteSpace%3Dwrap%3Brounded%3D0%3BfontSize%3D14%3B%22%20vertex%3D%221%22%20parent%3D%221%22%3E%3CmxGeometry%20x%3D%2280%22%20y%3D%22210%22%20width%3D%2280%22%20height%3D%2230%22%20as%3D%22geometry%22%2F%3E%3C%2FmxCell%3E%3C%2Froot%3E%3C%2FmxGraphModel%3E&lt;/span&gt;" style="text;html=1;strokeColor=none;fillColor=none;align=center;verticalAlign=middle;whiteSpace=wrap;rounded=0;fontSize=14;" vertex="1" parent="1">
          <mxGeometry x="240" y="210" width="80" height="30" as="geometry" />
        </mxCell>
        <mxCell id="DxmjoMygsBrn_RYdiTDZ-9" value="010" style="text;html=1;strokeColor=none;fillColor=none;align=center;verticalAlign=middle;whiteSpace=wrap;rounded=0;fontSize=14;" vertex="1" parent="1">
          <mxGeometry x="320" y="210" width="80" height="30" as="geometry" />
        </mxCell>
        <mxCell id="DxmjoMygsBrn_RYdiTDZ-10" value="010" style="text;html=1;strokeColor=none;fillColor=none;align=center;verticalAlign=middle;whiteSpace=wrap;rounded=0;fontSize=14;" vertex="1" parent="1">
          <mxGeometry x="400" y="210" width="80" height="30" as="geometry" />
        </mxCell>
        <mxCell id="DxmjoMygsBrn_RYdiTDZ-11" value="000" style="text;html=1;strokeColor=none;fillColor=none;align=center;verticalAlign=middle;whiteSpace=wrap;rounded=0;fontSize=14;" vertex="1" parent="1">
          <mxGeometry x="480" y="210" width="80" height="30" as="geometry" />
        </mxCell>
        <mxCell id="DxmjoMygsBrn_RYdiTDZ-12" value="000111" style="text;html=1;strokeColor=none;fillColor=none;align=center;verticalAlign=middle;whiteSpace=wrap;rounded=0;fontSize=14;" vertex="1" parent="1">
          <mxGeometry x="560" y="210" width="80" height="30" as="geometry" />
        </mxCell>
        <mxCell id="DxmjoMygsBrn_RYdiTDZ-13" value="00 24 07" style="text;html=1;strokeColor=none;fillColor=none;align=center;verticalAlign=middle;whiteSpace=wrap;rounded=0;fontSize=14;" vertex="1" parent="1">
          <mxGeometry x="80" y="210" width="80" height="30" as="geometry" />
        </mxCell>
        <mxCell id="DxmjoMygsBrn_RYdiTDZ-14" value="00000" style="text;html=1;strokeColor=none;fillColor=none;align=center;verticalAlign=middle;whiteSpace=wrap;rounded=0;fontSize=14;" vertex="1" parent="1">
          <mxGeometry x="160" y="210" width="80" height="30" as="geometry" />
        </mxCell>
        <mxCell id="DxmjoMygsBrn_RYdiTDZ-15" value="0000&lt;span style=&quot;color: rgba(0 , 0 , 0 , 0) ; font-family: monospace ; font-size: 0px&quot;&gt;%3CmxGraphModel%3E%3Croot%3E%3CmxCell%20id%3D%220%22%2F%3E%3CmxCell%20id%3D%221%22%20parent%3D%220%22%2F%3E%3CmxCell%20id%3D%222%22%20value%3D%2200%2024%2007%22%20style%3D%22text%3Bhtml%3D1%3BstrokeColor%3Dnone%3BfillColor%3Dnone%3Balign%3Dcenter%3BverticalAlign%3Dmiddle%3BwhiteSpace%3Dwrap%3Brounded%3D0%3BfontSize%3D14%3B%22%20vertex%3D%221%22%20parent%3D%221%22%3E%3CmxGeometry%20x%3D%2280%22%20y%3D%22210%22%20width%3D%2280%22%20height%3D%2230%22%20as%3D%22geometry%22%2F%3E%3C%2FmxCell%3E%3C%2Froot%3E%3C%2FmxGraphModel%3E&lt;/span&gt;" style="text;html=1;strokeColor=none;fillColor=none;align=center;verticalAlign=middle;whiteSpace=wrap;rounded=0;fontSize=14;" vertex="1" parent="1">
          <mxGeometry x="240" y="210" width="80" height="30" as="geometry" />
        </mxCell>
        <mxCell id="DxmjoMygsBrn_RYdiTDZ-16" value="010" style="text;html=1;strokeColor=none;fillColor=none;align=center;verticalAlign=middle;whiteSpace=wrap;rounded=0;fontSize=14;" vertex="1" parent="1">
          <mxGeometry x="320" y="210" width="80" height="30" as="geometry" />
        </mxCell>
        <mxCell id="DxmjoMygsBrn_RYdiTDZ-23" value="001" style="text;html=1;strokeColor=none;fillColor=none;align=center;verticalAlign=middle;whiteSpace=wrap;rounded=0;fontSize=14;" vertex="1" parent="1">
          <mxGeometry x="400" y="250" width="80" height="30" as="geometry" />
        </mxCell>
        <mxCell id="DxmjoMygsBrn_RYdiTDZ-24" value="000" style="text;html=1;strokeColor=none;fillColor=none;align=center;verticalAlign=middle;whiteSpace=wrap;rounded=0;fontSize=14;" vertex="1" parent="1">
          <mxGeometry x="480" y="250" width="80" height="30" as="geometry" />
        </mxCell>
        <mxCell id="DxmjoMygsBrn_RYdiTDZ-25" value="000001" style="text;html=1;strokeColor=none;fillColor=none;align=center;verticalAlign=middle;whiteSpace=wrap;rounded=0;fontSize=14;" vertex="1" parent="1">
          <mxGeometry x="560" y="250" width="80" height="30" as="geometry" />
        </mxCell>
        <mxCell id="DxmjoMygsBrn_RYdiTDZ-26" value="05 82 01" style="text;html=1;strokeColor=none;fillColor=none;align=center;verticalAlign=middle;whiteSpace=wrap;rounded=0;fontSize=14;" vertex="1" parent="1">
          <mxGeometry x="80" y="250" width="80" height="30" as="geometry" />
        </mxCell>
        <mxCell id="DxmjoMygsBrn_RYdiTDZ-27" value="00000" style="text;html=1;strokeColor=none;fillColor=none;align=center;verticalAlign=middle;whiteSpace=wrap;rounded=0;fontSize=14;" vertex="1" parent="1">
          <mxGeometry x="160" y="250" width="80" height="30" as="geometry" />
        </mxCell>
        <mxCell id="DxmjoMygsBrn_RYdiTDZ-28" value="1011" style="text;html=1;strokeColor=none;fillColor=none;align=center;verticalAlign=middle;whiteSpace=wrap;rounded=0;fontSize=14;" vertex="1" parent="1">
          <mxGeometry x="240" y="250" width="80" height="30" as="geometry" />
        </mxCell>
        <mxCell id="DxmjoMygsBrn_RYdiTDZ-29" value="000" style="text;html=1;strokeColor=none;fillColor=none;align=center;verticalAlign=middle;whiteSpace=wrap;rounded=0;fontSize=14;" vertex="1" parent="1">
          <mxGeometry x="320" y="250" width="80" height="30" as="geometry" />
        </mxCell>
        <mxCell id="DxmjoMygsBrn_RYdiTDZ-30" value="001" style="text;html=1;strokeColor=none;fillColor=none;align=center;verticalAlign=middle;whiteSpace=wrap;rounded=0;fontSize=14;" vertex="1" parent="1">
          <mxGeometry x="400" y="289" width="80" height="30" as="geometry" />
        </mxCell>
        <mxCell id="DxmjoMygsBrn_RYdiTDZ-31" value="000" style="text;html=1;strokeColor=none;fillColor=none;align=center;verticalAlign=middle;whiteSpace=wrap;rounded=0;fontSize=14;" vertex="1" parent="1">
          <mxGeometry x="480" y="289" width="80" height="30" as="geometry" />
        </mxCell>
        <mxCell id="DxmjoMygsBrn_RYdiTDZ-32" value="000001" style="text;html=1;strokeColor=none;fillColor=none;align=center;verticalAlign=middle;whiteSpace=wrap;rounded=0;fontSize=14;" vertex="1" parent="1">
          <mxGeometry x="560" y="289" width="80" height="30" as="geometry" />
        </mxCell>
        <mxCell id="DxmjoMygsBrn_RYdiTDZ-33" value="06 32 01" style="text;html=1;strokeColor=none;fillColor=none;align=center;verticalAlign=middle;whiteSpace=wrap;rounded=0;fontSize=14;" vertex="1" parent="1">
          <mxGeometry x="80" y="289" width="80" height="30" as="geometry" />
        </mxCell>
        <mxCell id="DxmjoMygsBrn_RYdiTDZ-34" value="00000" style="text;html=1;strokeColor=none;fillColor=none;align=center;verticalAlign=middle;whiteSpace=wrap;rounded=0;fontSize=14;" vertex="1" parent="1">
          <mxGeometry x="160" y="289" width="80" height="30" as="geometry" />
        </mxCell>
        <mxCell id="DxmjoMygsBrn_RYdiTDZ-35" value="1100" style="text;html=1;strokeColor=none;fillColor=none;align=center;verticalAlign=middle;whiteSpace=wrap;rounded=0;fontSize=14;" vertex="1" parent="1">
          <mxGeometry x="240" y="289" width="80" height="30" as="geometry" />
        </mxCell>
        <mxCell id="DxmjoMygsBrn_RYdiTDZ-36" value="011" style="text;html=1;strokeColor=none;fillColor=none;align=center;verticalAlign=middle;whiteSpace=wrap;rounded=0;fontSize=14;" vertex="1" parent="1">
          <mxGeometry x="320" y="289" width="80" height="30" as="geometry" />
        </mxCell>
        <mxCell id="DxmjoMygsBrn_RYdiTDZ-37" value="011" style="text;html=1;strokeColor=none;fillColor=none;align=center;verticalAlign=middle;whiteSpace=wrap;rounded=0;fontSize=14;" vertex="1" parent="1">
          <mxGeometry x="400" y="329" width="80" height="30" as="geometry" />
        </mxCell>
        <mxCell id="DxmjoMygsBrn_RYdiTDZ-38" value="000" style="text;html=1;strokeColor=none;fillColor=none;align=center;verticalAlign=middle;whiteSpace=wrap;rounded=0;fontSize=14;" vertex="1" parent="1">
          <mxGeometry x="480" y="329" width="80" height="30" as="geometry" />
        </mxCell>
        <mxCell id="DxmjoMygsBrn_RYdiTDZ-39" value="000110" style="text;html=1;strokeColor=none;fillColor=none;align=center;verticalAlign=middle;whiteSpace=wrap;rounded=0;fontSize=14;" vertex="1" parent="1">
          <mxGeometry x="560" y="329" width="80" height="30" as="geometry" />
        </mxCell>
        <mxCell id="DxmjoMygsBrn_RYdiTDZ-40" value="00 16 06" style="text;html=1;strokeColor=none;fillColor=none;align=center;verticalAlign=middle;whiteSpace=wrap;rounded=0;fontSize=14;" vertex="1" parent="1">
          <mxGeometry x="80" y="329" width="80" height="30" as="geometry" />
        </mxCell>
        <mxCell id="DxmjoMygsBrn_RYdiTDZ-41" value="00000" style="text;html=1;strokeColor=none;fillColor=none;align=center;verticalAlign=middle;whiteSpace=wrap;rounded=0;fontSize=14;" vertex="1" parent="1">
          <mxGeometry x="160" y="329" width="80" height="30" as="geometry" />
        </mxCell>
        <mxCell id="DxmjoMygsBrn_RYdiTDZ-42" value="0000&lt;span style=&quot;color: rgba(0 , 0 , 0 , 0) ; font-family: monospace ; font-size: 0px&quot;&gt;%3CmxGraphModel%3E%3Croot%3E%3CmxCell%20id%3D%220%22%2F%3E%3CmxCell%20id%3D%221%22%20parent%3D%220%22%2F%3E%3CmxCell%20id%3D%222%22%20value%3D%2200%2024%2007%22%20style%3D%22text%3Bhtml%3D1%3BstrokeColor%3Dnone%3BfillColor%3Dnone%3Balign%3Dcenter%3BverticalAlign%3Dmiddle%3BwhiteSpace%3Dwrap%3Brounded%3D0%3BfontSize%3D14%3B%22%20vertex%3D%221%22%20parent%3D%221%22%3E%3CmxGeometry%20x%3D%2280%22%20y%3D%22210%22%20width%3D%2280%22%20height%3D%2230%22%20as%3D%22geometry%22%2F%3E%3C%2FmxCell%3E%3C%2Froot%3E%3C%2FmxGraphModel%3E&lt;/span&gt;" style="text;html=1;strokeColor=none;fillColor=none;align=center;verticalAlign=middle;whiteSpace=wrap;rounded=0;fontSize=14;" vertex="1" parent="1">
          <mxGeometry x="240" y="329" width="80" height="30" as="geometry" />
        </mxCell>
        <mxCell id="DxmjoMygsBrn_RYdiTDZ-43" value="001" style="text;html=1;strokeColor=none;fillColor=none;align=center;verticalAlign=middle;whiteSpace=wrap;rounded=0;fontSize=14;" vertex="1" parent="1">
          <mxGeometry x="320" y="329" width="80" height="30" as="geometry" />
        </mxCell>
        <mxCell id="DxmjoMygsBrn_RYdiTDZ-44" value="011" style="text;html=1;strokeColor=none;fillColor=none;align=center;verticalAlign=middle;whiteSpace=wrap;rounded=0;fontSize=14;" vertex="1" parent="1">
          <mxGeometry x="400" y="366" width="80" height="30" as="geometry" />
        </mxCell>
        <mxCell id="DxmjoMygsBrn_RYdiTDZ-45" value="000" style="text;html=1;strokeColor=none;fillColor=none;align=center;verticalAlign=middle;whiteSpace=wrap;rounded=0;fontSize=14;" vertex="1" parent="1">
          <mxGeometry x="480" y="366" width="80" height="30" as="geometry" />
        </mxCell>
        <mxCell id="DxmjoMygsBrn_RYdiTDZ-46" value="011001" style="text;html=1;strokeColor=none;fillColor=none;align=center;verticalAlign=middle;whiteSpace=wrap;rounded=0;fontSize=14;" vertex="1" parent="1">
          <mxGeometry x="560" y="366" width="80" height="30" as="geometry" />
        </mxCell>
        <mxCell id="DxmjoMygsBrn_RYdiTDZ-47" value="00 16 19" style="text;html=1;strokeColor=none;fillColor=none;align=center;verticalAlign=middle;whiteSpace=wrap;rounded=0;fontSize=14;" vertex="1" parent="1">
          <mxGeometry x="80" y="366" width="80" height="30" as="geometry" />
        </mxCell>
        <mxCell id="DxmjoMygsBrn_RYdiTDZ-48" value="00000" style="text;html=1;strokeColor=none;fillColor=none;align=center;verticalAlign=middle;whiteSpace=wrap;rounded=0;fontSize=14;" vertex="1" parent="1">
          <mxGeometry x="160" y="366" width="80" height="30" as="geometry" />
        </mxCell>
        <mxCell id="DxmjoMygsBrn_RYdiTDZ-49" value="0000&lt;span style=&quot;color: rgba(0 , 0 , 0 , 0) ; font-family: monospace ; font-size: 0px&quot;&gt;%3CmxGraphModel%3E%3Croot%3E%3CmxCell%20id%3D%220%22%2F%3E%3CmxCell%20id%3D%221%22%20parent%3D%220%22%2F%3E%3CmxCell%20id%3D%222%22%20value%3D%2200%2024%2007%22%20style%3D%22text%3Bhtml%3D1%3BstrokeColor%3Dnone%3BfillColor%3Dnone%3Balign%3Dcenter%3BverticalAlign%3Dmiddle%3BwhiteSpace%3Dwrap%3Brounded%3D0%3BfontSize%3D14%3B%22%20vertex%3D%221%22%20parent%3D%221%22%3E%3CmxGeometry%20x%3D%2280%22%20y%3D%22210%22%20width%3D%2280%22%20height%3D%2230%22%20as%3D%22geometry%22%2F%3E%3C%2FmxCell%3E%3C%2Froot%3E%3C%2FmxGraphModel%3E&lt;/span&gt;" style="text;html=1;strokeColor=none;fillColor=none;align=center;verticalAlign=middle;whiteSpace=wrap;rounded=0;fontSize=14;" vertex="1" parent="1">
          <mxGeometry x="240" y="366" width="80" height="30" as="geometry" />
        </mxCell>
        <mxCell id="DxmjoMygsBrn_RYdiTDZ-50" value="001" style="text;html=1;strokeColor=none;fillColor=none;align=center;verticalAlign=middle;whiteSpace=wrap;rounded=0;fontSize=14;" vertex="1" parent="1">
          <mxGeometry x="320" y="366" width="80" height="30" as="geometry" />
        </mxCell>
      </root>
    </mxGraphModel>
  </diagram>
</mxfile>
